<svg width="22" height="22" viewBox="0 0 22 22" fill="none" xmlns="http://www.w3.org/2000/svg">
<g clip-path="url(#clip0_398_9381)">
<path d="M16.1992 1.11704C16.3477 1.20494 16.4045 1.27464 16.5 1.41782C16.5109 1.52831 16.5109 1.52831 16.5112 1.66381C16.5116 1.74119 16.5116 1.74119 16.5121 1.82013C16.512 1.87767 16.5119 1.9352 16.5118 1.99274C16.512 2.05364 16.5122 2.11454 16.5125 2.17543C16.5131 2.34317 16.5131 2.51091 16.5131 2.67866C16.5132 2.85941 16.5138 3.04016 16.5142 3.22092C16.5152 3.61633 16.5156 4.01175 16.5158 4.40717C16.5159 4.65397 16.5162 4.90077 16.5165 5.14758C16.5174 5.83064 16.5181 6.5137 16.5182 7.19676C16.5182 7.24049 16.5182 7.28422 16.5182 7.32928C16.5182 7.41793 16.5182 7.50659 16.5183 7.59525C16.5183 7.63926 16.5183 7.68327 16.5183 7.72862C16.5183 7.79471 16.5183 7.79471 16.5183 7.86214C16.5185 8.57634 16.5196 9.29053 16.5212 10.0047C16.5229 10.7376 16.5237 11.4705 16.5237 12.2034C16.5237 12.6151 16.5241 13.0267 16.5253 13.4383C16.5264 13.7888 16.5267 14.1393 16.5261 14.4898C16.5258 14.6686 16.5258 14.8475 16.5268 15.0264C16.5277 15.1901 16.5275 15.3538 16.5266 15.5175C16.5264 15.6049 16.5273 15.6922 16.5281 15.7795C16.5242 16.203 16.5242 16.203 16.396 16.3612C16.2449 16.4917 16.1727 16.536 15.9736 16.5589C15.6994 16.5315 15.4809 16.3835 15.2531 16.2336C14.7336 15.8921 14.1758 15.6185 13.6211 15.3397C13.5841 15.3209 13.5472 15.3021 13.5091 15.2828C12.8798 14.9641 12.2212 14.7196 11.5586 14.4803C11.4917 14.4561 11.4917 14.4561 11.4234 14.4314C10.1285 13.9687 8.77908 13.6627 7.42017 13.4625C7.39086 13.4581 7.36155 13.4537 7.33135 13.4491C6.72163 13.3581 6.11749 13.3229 5.5 13.2772C5.5 10.342 5.5 7.40681 5.5 4.38267C6.10973 4.34013 6.71945 4.29759 7.34766 4.25376C9.497 3.99296 11.6135 3.41912 13.5365 2.40734C13.6291 2.35894 13.7223 2.31176 13.8155 2.26461C14.1761 2.08053 14.5253 1.8847 14.8672 1.66758C14.9015 1.64581 14.9358 1.62404 14.9711 1.60161C15.1143 1.50996 15.2551 1.41698 15.3936 1.31829C15.659 1.13163 15.8725 1.04859 16.1992 1.11704Z" fill="white"/>
<path d="M4.42577 4.38272C4.42577 7.30373 4.42577 10.2247 4.42577 13.2343C1.27372 13.2343 1.27372 13.2343 0.571001 12.5673C0.13973 12.1007 -0.027119 11.5619 -0.021571 10.9357C-0.0218032 10.8847 -0.0220353 10.8338 -0.0222745 10.7813C-0.0228077 10.6146 -0.0221048 10.4479 -0.0213297 10.2812C-0.0212541 10.1645 -0.0213982 10.0477 -0.0215192 9.931C-0.0216348 9.68706 -0.0210605 9.44314 -0.0200604 9.1992C-0.0189162 8.91821 -0.0188426 8.63724 -0.0193467 8.35625C-0.0198117 8.08447 -0.0195424 7.81269 -0.018936 7.54091C-0.0186902 7.42589 -0.0187272 7.31089 -0.018896 7.19586C-0.0190216 7.03495 -0.0183092 6.87407 -0.0173748 6.71316C-0.0175683 6.6661 -0.0177617 6.61903 -0.017961 6.57054C-0.0126185 6.01424 0.178511 5.47419 0.561098 5.05964C1.66193 4.06513 2.92957 4.38272 4.42577 4.38272Z" fill="white"/>
<path d="M1.84766 14.2656C3.25145 14.2869 3.25145 14.2869 4.68359 14.3086C4.88833 15.7192 4.88833 15.7192 4.9738 16.3128C5.0327 16.7218 5.09168 17.1307 5.15119 17.5397C5.19455 17.8375 5.23762 18.1354 5.28036 18.4334C5.30297 18.591 5.32572 18.7485 5.3488 18.906C5.37466 19.0824 5.39988 19.2589 5.42506 19.4354C5.43269 19.4868 5.44032 19.5383 5.44819 19.5913C5.5755 20.4967 5.5755 20.4967 5.4248 20.7405C5.30987 20.8586 5.22406 20.9178 5.05902 20.9373C5.02353 20.9376 4.98805 20.9379 4.9515 20.9383C4.91105 20.9388 4.8706 20.9394 4.82893 20.9399C4.78551 20.94 4.74209 20.9401 4.69736 20.9402C4.65243 20.9405 4.60751 20.9408 4.56122 20.9411C4.46623 20.9415 4.37124 20.9417 4.27625 20.9417C4.1312 20.9419 3.98621 20.9435 3.84117 20.9451C3.7488 20.9453 3.65643 20.9455 3.56406 20.9456C3.49919 20.9465 3.49919 20.9465 3.43301 20.9475C3.18717 20.9459 3.0195 20.9351 2.83594 20.7539C2.69746 20.4536 2.6585 20.1466 2.61351 19.821C2.60506 19.7618 2.59657 19.7027 2.58805 19.6436C2.56516 19.4841 2.54275 19.3245 2.52043 19.1648C2.49696 18.9975 2.47306 18.8302 2.4492 18.663C2.40926 18.3824 2.3696 18.1018 2.33014 17.8212C2.27447 17.4252 2.21825 17.0294 2.16192 16.6335C2.12292 16.3592 2.08405 16.0848 2.04521 15.8105C2.03579 15.744 2.02637 15.6775 2.01694 15.611C1.9901 15.4217 1.96335 15.2323 1.93674 15.0429C1.9248 14.9581 1.91278 14.8733 1.90076 14.7885C1.89372 14.7382 1.88667 14.6879 1.87941 14.6361C1.87324 14.5923 1.86707 14.5485 1.86072 14.5034C1.84766 14.3945 1.84766 14.3945 1.84766 14.2656Z" fill="white"/>
<path d="M19.4648 11.5587C19.6541 11.6236 19.8289 11.7121 20.0068 11.8034C20.0572 11.8285 20.1075 11.8537 20.1594 11.8796C20.2655 11.9326 20.3712 11.9861 20.4767 12.0402C20.6114 12.1091 20.7466 12.1767 20.8821 12.2438C21.0123 12.3086 21.142 12.3742 21.2717 12.4399C21.32 12.4639 21.3683 12.4879 21.418 12.5127C21.6635 12.6392 21.8482 12.7426 21.9999 12.9766C22.0445 13.1633 22.0438 13.359 21.9588 13.534C21.8518 13.6723 21.7403 13.7582 21.5703 13.793C21.2246 13.7826 20.972 13.6666 20.6661 13.5121C20.6176 13.488 20.5692 13.464 20.5193 13.4393C20.4173 13.3885 20.3155 13.3375 20.2139 13.286C20.0845 13.2206 19.9545 13.1563 19.8243 13.0923C19.699 13.0306 19.5743 12.9678 19.4495 12.9051C19.4032 12.8824 19.3569 12.8596 19.3091 12.8362C19.054 12.7058 18.8462 12.5791 18.6914 12.3321C18.6458 12.182 18.6539 12.0544 18.6914 11.9024C18.8845 11.5787 19.1002 11.5109 19.4648 11.5587Z" fill="white"/>
<path d="M21.6564 3.86696C21.8342 3.95586 21.9261 4.02805 22.0001 4.21071C22.0176 4.31091 22.0176 4.31091 22.0216 4.4175C22.0238 4.45234 22.026 4.48718 22.0283 4.52307C21.9753 4.74371 21.8225 4.88926 21.635 5.01068C21.505 5.08178 21.3735 5.14827 21.2404 5.21342C21.192 5.23769 21.1436 5.26196 21.0937 5.28697C20.9917 5.33793 20.8895 5.3886 20.7871 5.43882C20.6566 5.50287 20.5266 5.56797 20.3968 5.63343C20.2719 5.69627 20.1465 5.75828 20.0212 5.82036C19.9749 5.84363 19.9286 5.8669 19.8809 5.89088C19.5811 6.03709 19.3373 6.15038 19.003 6.05568C18.8374 5.9569 18.7726 5.88977 18.6915 5.71462C18.6635 5.53408 18.672 5.38158 18.7345 5.20973C19.0554 4.84875 19.6249 4.65516 20.0477 4.4414C20.1426 4.39322 20.2374 4.34467 20.332 4.29575C20.4694 4.22466 20.6074 4.15471 20.7456 4.08499C20.7874 4.06311 20.8293 4.04123 20.8724 4.01868C21.1355 3.88792 21.3612 3.81869 21.6564 3.86696Z" fill="white"/>
<path d="M19.3212 8.24316C19.3961 8.24254 19.3961 8.24254 19.4725 8.24191C19.5534 8.24163 19.5534 8.24163 19.636 8.24135C19.7193 8.24099 19.7193 8.24099 19.8042 8.24061C19.9217 8.24016 20.0392 8.23991 20.1567 8.23976C20.3068 8.23952 20.4569 8.23849 20.607 8.23727C20.7506 8.23627 20.8943 8.23619 21.0379 8.23598C21.1185 8.23519 21.1185 8.23519 21.2007 8.23438C21.6671 8.23557 21.6671 8.23557 21.8709 8.37899C22.0281 8.54659 22.0212 8.73576 22.0153 8.95487C21.9943 9.10626 21.9414 9.18082 21.828 9.28133C21.6789 9.38073 21.62 9.37851 21.444 9.37975C21.3915 9.3803 21.339 9.38085 21.2849 9.38141C21.2275 9.38155 21.1701 9.38164 21.1128 9.3817C21.0538 9.38198 20.9949 9.38227 20.936 9.38257C20.8124 9.38309 20.6888 9.38324 20.5653 9.38319C20.4073 9.38319 20.2495 9.38436 20.0915 9.38584C19.9698 9.3868 19.848 9.38697 19.7263 9.38692C19.6399 9.38707 19.5535 9.388 19.4671 9.38895C18.9786 9.38651 18.9786 9.38651 18.7772 9.19539C18.6527 9.01486 18.6534 8.80441 18.6912 8.59383C18.8471 8.32054 19.0119 8.24522 19.3212 8.24316Z" fill="white"/>
</g>
<defs>
<clipPath id="clip0_398_9381">
<rect width="22" height="22" fill="white"/>
</clipPath>
</defs>
</svg>
