<svg width="22" height="22" viewBox="0 0 22 22" fill="none" xmlns="http://www.w3.org/2000/svg">
<g clip-path="url(#clip0_398_9355)">
<path d="M2.4581 0.50426C2.51971 0.504099 2.58133 0.503901 2.64294 0.50367C2.81148 0.503146 2.98002 0.503155 3.14855 0.503257C3.33063 0.503274 3.5127 0.502799 3.69478 0.502392C4.0512 0.50168 4.40763 0.501442 4.76405 0.501394C5.05388 0.501354 5.3437 0.501177 5.63353 0.500904C6.45588 0.500148 7.27823 0.499751 8.10059 0.499816C8.16704 0.499821 8.16704 0.499821 8.23483 0.499826C8.30136 0.499831 8.30136 0.499831 8.36924 0.499837C9.08793 0.499872 9.80663 0.499049 10.5253 0.497838C11.2639 0.496602 12.0025 0.49601 12.7411 0.496084C13.1555 0.496112 13.5699 0.495878 13.9843 0.494952C14.3371 0.494168 14.69 0.493983 15.0428 0.494566C15.2227 0.494846 15.4025 0.494854 15.5824 0.494106C15.7474 0.493427 15.9124 0.493556 16.0773 0.494302C16.1646 0.494495 16.2519 0.493849 16.3391 0.493164C16.8672 0.497104 17.3161 0.591985 17.6989 0.969272C17.9623 1.27627 18.0521 1.54572 18.0527 1.94547C18.0528 1.97717 18.0529 2.00887 18.053 2.04153C18.0533 2.14834 18.0532 2.25514 18.0532 2.36194C18.0534 2.43906 18.0535 2.51618 18.0537 2.5933C18.0541 2.80568 18.0543 3.01806 18.0544 3.23045C18.0546 3.45933 18.055 3.68821 18.0554 3.91709C18.0562 4.47006 18.0566 5.02303 18.057 5.576C18.0572 5.83633 18.0574 6.09666 18.0577 6.35699C18.0584 7.22225 18.059 8.08751 18.0593 8.95277C18.0594 9.17734 18.0595 9.40192 18.0596 9.62649C18.0596 9.68231 18.0596 9.73812 18.0596 9.79563C18.06 10.7 18.0611 11.6044 18.0625 12.5089C18.0639 13.4371 18.0647 14.3654 18.0648 15.2937C18.0649 15.815 18.0653 16.3363 18.0664 16.8576C18.0673 17.3015 18.0677 17.7454 18.0672 18.1894C18.067 18.4159 18.0671 18.6423 18.068 18.8688C18.0687 19.0763 18.0687 19.2837 18.068 19.4911C18.0679 19.5661 18.0681 19.641 18.0686 19.716C18.072 20.243 18.0321 20.6683 17.6533 21.0656C17.2272 21.4709 16.7499 21.5038 16.1789 21.5006C16.1171 21.5007 16.0553 21.5009 15.9935 21.5011C15.8248 21.5015 15.6561 21.5012 15.4874 21.5007C15.3051 21.5003 15.1227 21.5007 14.9403 21.501C14.5836 21.5014 14.2268 21.5011 13.8701 21.5006C13.4544 21.5 13.0387 21.5001 12.623 21.5002C11.8812 21.5003 11.1395 21.4998 10.3977 21.4989C9.67833 21.4981 8.95894 21.4978 8.23955 21.4981C7.45561 21.4983 6.67167 21.4983 5.88772 21.4978C5.80411 21.4978 5.72049 21.4977 5.63687 21.4977C5.59573 21.4976 5.55459 21.4976 5.51221 21.4976C5.2226 21.4974 4.93299 21.4974 4.64338 21.4975C4.2904 21.4976 3.93743 21.4974 3.58446 21.4968C3.40445 21.4965 3.22443 21.4963 3.04442 21.4965C2.87951 21.4967 2.71461 21.4964 2.5497 21.4959C2.49017 21.4958 2.43064 21.4958 2.37111 21.496C1.83503 21.4974 1.41525 21.4487 0.988301 21.0978C0.716641 20.7902 0.588053 20.4977 0.590528 20.0857C0.590377 20.0538 0.590227 20.0218 0.590071 19.9889C0.589671 19.8817 0.589883 19.7746 0.590092 19.6674C0.589931 19.5898 0.589733 19.5122 0.589502 19.4347C0.588975 19.2214 0.588987 19.0082 0.589089 18.7949C0.589106 18.5649 0.588632 18.335 0.588224 18.105C0.58751 17.6545 0.587274 17.2039 0.587226 16.7533C0.587186 16.3871 0.587009 16.0209 0.586736 15.6547C0.58598 14.6167 0.585583 13.5788 0.585648 12.5408C0.585651 12.4848 0.585654 12.4288 0.585658 12.3712C0.585662 12.3151 0.585665 12.2591 0.585669 12.2014C0.585704 11.293 0.584881 10.3847 0.58367 9.4764C0.582436 8.54399 0.581842 7.61157 0.581916 6.67915C0.581944 6.15558 0.581708 5.632 0.580783 5.10842C0.580002 4.66266 0.579814 4.21691 0.580398 3.77115C0.580679 3.54371 0.580682 3.31627 0.579937 3.08883C0.579263 2.88057 0.579383 2.67234 0.580134 2.46409C0.580266 2.38879 0.580108 2.31349 0.57963 2.2382C0.575379 1.5215 0.575379 1.5215 0.773457 1.20325C0.788814 1.17582 0.804172 1.1484 0.819994 1.12014C0.989132 0.828161 1.30792 0.644941 1.62452 0.555462C1.90061 0.4971 2.17705 0.5036 2.4581 0.50426ZM8.33596 5.15638C8.28013 5.17897 8.28013 5.17897 8.22316 5.20203C7.60781 5.47894 7.13296 6.00118 6.87485 6.62101C6.6277 7.34406 6.63837 8.03827 6.96901 8.73352C7.34051 9.42833 7.88368 9.87571 8.62868 10.1327C9.34135 10.3228 10.0286 10.2068 10.6647 9.85575C11.3035 9.47565 11.7182 8.86695 11.9158 8.15613C12.0469 7.46252 11.9196 6.79032 11.5586 6.18763C11.1555 5.60084 10.5935 5.16912 9.8929 5.0033C9.35909 4.93109 8.83686 4.94489 8.33596 5.15638ZM5.98879 12.6571C5.1772 13.6002 4.89036 14.7276 4.8905 15.948C4.8904 16.0415 4.88961 16.1349 4.88881 16.2283C4.88868 16.2883 4.88859 16.3483 4.88855 16.4083C4.88838 16.4621 4.8882 16.5158 4.88802 16.5712C4.89826 16.7123 4.91761 16.8058 4.98439 16.9298C5.14285 17.0354 5.26246 17.028 5.44574 17.0272C5.47995 17.0274 5.51415 17.0276 5.54939 17.0278C5.66439 17.0284 5.77937 17.0283 5.89437 17.0282C5.97666 17.0285 6.05895 17.0288 6.14124 17.0291C6.36504 17.0299 6.58885 17.0301 6.81266 17.0301C6.99932 17.0302 7.18598 17.0305 7.37264 17.0308C7.81291 17.0315 8.25317 17.0317 8.69344 17.0317C9.14804 17.0316 9.60263 17.0325 10.0572 17.0339C10.4472 17.035 10.8371 17.0355 11.2271 17.0354C11.4601 17.0354 11.6932 17.0356 11.9262 17.0365C12.1454 17.0374 12.3645 17.0374 12.5836 17.0368C12.6641 17.0367 12.7446 17.0369 12.8251 17.0374C12.9349 17.0381 13.0446 17.0377 13.1543 17.037C13.1863 17.0374 13.2183 17.0379 13.2513 17.0383C13.4007 17.0363 13.4781 17.0268 13.5973 16.9333C13.9039 16.5228 13.7451 15.3957 13.6762 14.8972C13.5428 14.1303 13.2272 13.3974 12.7188 12.8048C12.6901 12.7705 12.6615 12.7361 12.632 12.7007C11.8838 11.8325 10.8328 11.2751 9.68242 11.1775C9.6493 11.1757 9.61618 11.1739 9.58205 11.172C9.54272 11.1697 9.5034 11.1675 9.46288 11.1651C8.11108 11.126 6.91708 11.6992 5.98879 12.6571Z" fill="white"/>
<path d="M19.3789 14.8242C20.6142 14.8242 20.6142 14.8242 21.0547 15.2539C21.3459 15.6117 21.4119 15.927 21.4129 16.38C21.4132 16.4264 21.4134 16.4728 21.4137 16.5206C21.4142 16.6186 21.4144 16.7166 21.4144 16.8146C21.4145 16.9636 21.4161 17.1127 21.4177 17.2618C21.418 17.3572 21.4182 17.4527 21.4182 17.5482C21.4189 17.5924 21.4195 17.6366 21.4201 17.6821C21.4176 18.0813 21.2886 18.4398 21.0117 18.7344C20.5031 19.1633 20.0635 19.1211 19.3789 19.1211C19.3789 17.7031 19.3789 16.2852 19.3789 14.8242Z" fill="white"/>
<path d="M19.3789 9.02344C20.6142 9.02344 20.6142 9.02344 21.0547 9.45312C21.3459 9.81096 21.4119 10.1262 21.4129 10.5792C21.4132 10.6256 21.4134 10.672 21.4137 10.7198C21.4142 10.8178 21.4144 10.9158 21.4144 11.0138C21.4145 11.1629 21.4161 11.3119 21.4177 11.461C21.418 11.5565 21.4182 11.6519 21.4182 11.7474C21.4189 11.7916 21.4195 11.8358 21.4201 11.8813C21.4175 12.2986 21.2898 12.5968 21.0048 12.8999C20.5252 13.3652 20.0622 13.3203 19.3789 13.3203C19.3789 11.9023 19.3789 10.4844 19.3789 9.02344Z" fill="white"/>
<path d="M19.3789 3.22266C20.6129 3.22266 20.6129 3.22266 21.0918 3.67903C21.3063 3.91787 21.4023 4.18452 21.406 4.50284C21.4066 4.5436 21.4071 4.58435 21.4077 4.62634C21.408 4.67016 21.4083 4.71398 21.4087 4.75912C21.409 4.8046 21.4094 4.85007 21.4097 4.89692C21.4103 4.99321 21.4108 5.0895 21.4111 5.18579C21.4116 5.2838 21.4125 5.38181 21.4138 5.47982C21.4156 5.62184 21.4163 5.76382 21.4167 5.90585C21.4175 5.94915 21.4182 5.99245 21.419 6.03706C21.4177 6.45642 21.2977 6.79439 21.0084 7.10042C20.523 7.54339 20.0585 7.47656 19.3789 7.47656C19.3789 6.07277 19.3789 4.66898 19.3789 3.22266Z" fill="white"/>
</g>
<defs>
<clipPath id="clip0_398_9355">
<rect width="22" height="22" fill="white"/>
</clipPath>
</defs>
</svg>
