<svg width="22" height="22" viewBox="0 0 22 22" fill="none" xmlns="http://www.w3.org/2000/svg">
<g clip-path="url(#clip0_398_9346)">
<path d="M10.957 6.70312C11.1418 6.7743 11.265 6.91385 11.4011 7.05185C11.4284 7.07908 11.4556 7.10632 11.4836 7.13438C11.5749 7.22584 11.6659 7.31761 11.7569 7.40937C11.8222 7.47496 11.8876 7.54052 11.953 7.60606C12.0939 7.74737 12.2347 7.88881 12.3753 8.03035C12.5979 8.25432 12.8209 8.47795 13.0439 8.70152C13.598 9.25709 14.1517 9.81305 14.7052 10.3692C15.135 10.8011 15.5649 11.2328 15.9952 11.664C16.2167 11.886 16.4379 12.1083 16.6589 12.3309C16.7968 12.4696 16.935 12.6081 17.0733 12.7465C17.1371 12.8105 17.2009 12.8746 17.2644 12.9388C17.958 13.6391 18.641 14.1047 19.6367 14.2656C19.6407 15.0123 19.6437 15.759 19.6456 16.5057C19.6465 16.8524 19.6477 17.1992 19.6497 17.5459C19.6514 17.8484 19.6525 18.1508 19.6529 18.4532C19.6531 18.6132 19.6536 18.7731 19.6549 18.9331C19.6563 19.1122 19.6563 19.2913 19.6562 19.4705C19.6568 19.5227 19.6574 19.575 19.6581 19.6288C19.6548 20.3253 19.3986 20.8805 18.927 21.3845C18.5431 21.7437 18.0265 22.0041 17.4944 22.006C17.4535 22.0063 17.4127 22.0065 17.3706 22.0068C17.3042 22.0069 17.3042 22.0069 17.2364 22.0069C17.1658 22.0072 17.1658 22.0072 17.0938 22.0076C16.9384 22.0082 16.783 22.0085 16.6275 22.0087C16.5195 22.009 16.4115 22.0092 16.3034 22.0095C16.1059 22.0099 15.9084 22.0101 15.711 22.0103C15.4206 22.0105 15.1302 22.0112 14.8398 22.0125C14.5879 22.0135 14.336 22.0138 14.0841 22.0139C13.9771 22.014 13.87 22.0144 13.763 22.0149C13.6134 22.0157 13.4639 22.0156 13.3143 22.0153C13.27 22.0157 13.2257 22.0161 13.1801 22.0165C12.8043 22.0143 12.8043 22.0143 12.6328 21.8711C12.4795 21.6965 12.4125 21.5982 12.4128 21.3675C12.4127 21.3033 12.4127 21.3033 12.4126 21.2379C12.4128 21.1907 12.4129 21.1436 12.4131 21.0951C12.4131 21.0457 12.4131 20.9962 12.413 20.9452C12.4131 20.7811 12.4134 20.6169 12.4137 20.4528C12.4138 20.3392 12.4139 20.2257 12.4139 20.1121C12.4141 19.8434 12.4144 19.5746 12.4148 19.3059C12.4154 18.97 12.4156 18.6341 12.4158 18.2981C12.4163 17.6988 12.4171 17.0994 12.4179 16.5C11.4821 16.5 10.5462 16.5 9.58201 16.5C9.584 16.863 9.58599 17.226 9.58805 17.6001C9.58904 17.8592 9.58992 18.1183 9.59064 18.3775C9.5916 18.7132 9.59281 19.0489 9.59497 19.3846C9.59687 19.6788 9.59787 19.973 9.59831 20.2672C9.59863 20.3795 9.59925 20.4918 9.60018 20.6041C9.60142 20.7612 9.6016 20.9184 9.60152 21.0756C9.60214 21.1221 9.60275 21.1686 9.60339 21.2165C9.60195 21.4782 9.58316 21.628 9.41013 21.8281C9.38798 21.8538 9.36582 21.8795 9.34299 21.906C9.2238 22.0045 9.10375 22.0055 8.95624 22.0063C8.91602 22.0066 8.87579 22.0069 8.83435 22.0073C8.79029 22.0074 8.74623 22.0075 8.70083 22.0076C8.65435 22.0079 8.60787 22.0082 8.55998 22.0085C8.40573 22.0093 8.25149 22.0098 8.09723 22.0102C8.04448 22.0104 7.99173 22.0106 7.93738 22.0108C7.68668 22.0116 7.43599 22.0122 7.1853 22.0126C6.92565 22.0129 6.66603 22.0138 6.40639 22.0153C6.12735 22.017 5.84833 22.0178 5.56929 22.018C5.46325 22.0182 5.35722 22.0187 5.25118 22.0195C4.34106 22.0259 3.66851 21.9366 2.97875 21.2902C2.61312 20.9 2.35759 20.3654 2.35809 19.8255C2.35803 19.7765 2.35797 19.7274 2.35791 19.6769C2.35806 19.6233 2.35822 19.5696 2.35838 19.5144C2.35837 19.4578 2.35837 19.4012 2.35836 19.3429C2.35835 19.1878 2.3586 19.0327 2.3589 18.8776C2.35917 18.7155 2.35919 18.5534 2.35924 18.3913C2.35938 18.0843 2.35973 17.7774 2.36016 17.4705C2.36064 17.121 2.36088 16.7715 2.36109 16.4221C2.36154 15.7033 2.3623 14.9844 2.36326 14.2656C2.41331 14.2541 2.46336 14.2426 2.51493 14.2308C2.5813 14.2154 2.64768 14.2 2.71406 14.1846C2.76341 14.1732 2.76341 14.1732 2.81377 14.1617C3.81726 13.9279 4.4601 13.2068 5.16189 12.5031C5.22546 12.4395 5.28903 12.376 5.35262 12.3124C5.52367 12.1414 5.69458 11.9702 5.86547 11.799C6.04466 11.6196 6.22397 11.4402 6.40327 11.2609C6.74208 10.9219 7.08079 10.5829 7.41946 10.2438C7.80532 9.85743 8.1913 9.47121 8.57729 9.085C9.37067 8.29118 10.1639 7.4972 10.957 6.70312Z" fill="white"/>
<path d="M12.0574 0.24395C12.3341 0.444342 12.5802 0.659376 12.8206 0.901785C12.8581 0.93918 12.8957 0.976574 12.9345 1.0151C13.0375 1.1177 13.1402 1.22058 13.2428 1.32359C13.354 1.43509 13.4656 1.54623 13.5772 1.65741C13.7951 1.87476 14.0127 2.09245 14.2301 2.31027C14.4069 2.48736 14.5838 2.66433 14.7609 2.8412C14.7861 2.86645 14.8114 2.89169 14.8374 2.9177C14.8887 2.96899 14.9401 3.02028 14.9914 3.07157C15.4718 3.55161 15.9518 4.03205 16.4317 4.51263C16.843 4.92451 17.2547 5.33605 17.6665 5.74734C18.1456 6.22573 18.6245 6.70432 19.103 7.18325C19.1541 7.23436 19.2052 7.28546 19.2562 7.33657C19.2813 7.36172 19.3065 7.38686 19.3323 7.41276C19.509 7.58949 19.6857 7.76606 19.8625 7.94258C20.0781 8.15778 20.2934 8.37321 20.5085 8.58894C20.6181 8.69889 20.7278 8.80873 20.8378 8.9183C20.9572 9.03728 21.0762 9.15676 21.1951 9.27629C21.2296 9.31054 21.2641 9.34479 21.2997 9.38007C21.7713 9.85662 22.0145 10.3261 22.0215 11.0027C22.0181 11.3304 21.9837 11.6086 21.8281 11.9023C21.8089 11.9396 21.7897 11.977 21.7699 12.0154C21.494 12.5111 21.0854 12.8351 20.5396 12.997C20.0123 13.1342 19.4672 13.0714 18.9761 12.8342C18.7752 12.7132 18.6112 12.5702 18.442 12.4098C18.4141 12.3834 18.3861 12.3571 18.3573 12.3299C18.022 12.0125 17.6959 11.6859 17.3698 11.359C17.3003 11.2895 17.2308 11.22 17.1612 11.1505C16.9746 10.9638 16.7881 10.777 16.6015 10.5902C16.4058 10.3942 16.21 10.1984 16.0142 10.0025C15.6862 9.67444 15.3583 9.34628 15.0305 9.01805C14.6932 8.68032 14.3558 8.34264 14.0183 8.00501C13.987 7.97368 13.987 7.97368 13.9551 7.94171C13.8503 7.83688 13.7455 7.73206 13.6407 7.62723C12.7747 6.76073 11.9088 5.89407 11.043 5.02731C10.92 5.08314 10.8317 5.14205 10.7365 5.23761C10.7109 5.26317 10.6852 5.28872 10.6588 5.31505C10.6311 5.34315 10.6033 5.37126 10.5747 5.40021C10.53 5.44497 10.53 5.44497 10.4843 5.49062C10.3842 5.59089 10.2844 5.69147 10.1846 5.79204C10.113 5.8639 10.0413 5.93575 9.96967 6.00757C9.8152 6.16246 9.66087 6.31747 9.50663 6.47258C9.28318 6.69728 9.05945 6.9217 8.83562 7.14603C8.47189 7.51058 8.1083 7.87528 7.74485 8.24011C7.7231 8.26194 7.70135 8.28378 7.67894 8.30627C7.43658 8.54955 7.19427 8.79286 6.95199 9.03622C6.8643 9.12429 6.77662 9.21236 6.68893 9.30043C6.6673 9.32217 6.64566 9.3439 6.62337 9.36628C6.26171 9.72952 5.89981 10.0925 5.5377 10.4553C5.29485 10.6986 5.05231 10.9423 4.80999 11.1861C4.65873 11.3382 4.50719 11.49 4.35557 11.6418C4.28561 11.7119 4.21575 11.7822 4.14601 11.8526C3.52867 12.4753 2.94944 13.0419 2.02492 13.0759C1.44545 13.0614 0.943138 12.8321 0.526723 12.4372C0.375556 12.2733 0.269388 12.1022 0.171895 11.9023C0.15417 11.8686 0.136446 11.835 0.118184 11.8003C-0.0777809 11.3648 -0.0830882 10.7582 0.069844 10.3071C0.259966 9.90101 0.490038 9.58228 0.80854 9.26728C0.846182 9.22937 0.883823 9.19146 0.922606 9.1524C1.02622 9.04822 1.1302 8.94444 1.23436 8.84081C1.34698 8.72859 1.45909 8.61587 1.57127 8.50322C1.79074 8.28299 2.01066 8.06322 2.23076 7.84363C2.40971 7.66506 2.5885 7.48633 2.76716 7.30748C2.79264 7.28197 2.81813 7.25646 2.84438 7.23018C2.89615 7.17836 2.94792 7.12653 2.99969 7.0747C3.48455 6.58935 3.96994 6.10453 4.45551 5.61988C4.87166 5.2045 5.28735 4.78868 5.70272 4.37252C6.18569 3.88862 6.66894 3.40501 7.15264 2.92184C7.20427 2.87026 7.2559 2.81869 7.30753 2.76711C7.33293 2.74174 7.35833 2.71637 7.3845 2.69022C7.56301 2.51186 7.74131 2.33331 7.91955 2.15467C8.13691 1.93682 8.35459 1.71928 8.57265 1.50213C8.68379 1.39144 8.79479 1.28062 8.90542 1.16942C9.02559 1.04864 9.14643 0.928535 9.26733 0.808486C9.31911 0.756134 9.31911 0.756134 9.37193 0.702724C10.0665 0.0176317 11.1762 -0.323083 12.0574 0.24395Z" fill="white"/>
<path d="M15.5989 -0.00675797C15.6456 -0.00707798 15.6456 -0.00707798 15.6932 -0.00740445C15.7963 -0.00803318 15.8994 -0.00832509 16.0025 -0.00856233C16.0742 -0.00880945 16.1458 -0.00905685 16.2174 -0.00930452C16.3677 -0.00975627 16.518 -0.0100072 16.6683 -0.0101569C16.8608 -0.0103924 17.0532 -0.0114244 17.2457 -0.0126479C17.3937 -0.0134487 17.5417 -0.0136719 17.6897 -0.0137377C17.7606 -0.0138677 17.8315 -0.0142124 17.9025 -0.0147769C18.0018 -0.015511 18.1012 -0.0154289 18.2005 -0.0151503C18.2571 -0.015307 18.3136 -0.0154636 18.3718 -0.015625C18.6085 0.0096987 18.7521 0.124959 18.9061 0.300947C18.9473 0.424619 18.9544 0.501317 18.9543 0.629687C18.9543 0.691235 18.9543 0.691235 18.9544 0.754026C18.9542 0.821434 18.9542 0.821434 18.954 0.890204C18.954 0.937581 18.954 0.984958 18.954 1.03377C18.954 1.19071 18.9536 1.34764 18.9533 1.50458C18.9532 1.61325 18.9531 1.72193 18.9531 1.83061C18.953 2.08763 18.9526 2.34465 18.9522 2.60168C18.9517 2.8943 18.9515 3.18692 18.9512 3.47954C18.9508 4.08147 18.95 4.6834 18.9491 5.28532C18.7125 5.0869 18.4888 4.87825 18.2671 4.66341C18.2301 4.62773 18.1932 4.59206 18.1552 4.5553C17.8167 4.22766 17.4802 3.89791 17.1446 3.56737C16.9195 3.34578 16.6937 3.12498 16.4661 2.90597C16.2666 2.71406 16.0686 2.5208 15.8721 2.32583C15.7684 2.22299 15.6641 2.12091 15.5581 2.02043C14.8315 1.3273 14.8315 1.3273 14.8057 0.921645C14.8116 0.660602 14.8603 0.442549 14.996 0.215009C15.2065 0.0249943 15.3174 -0.00529376 15.5989 -0.00675797Z" fill="white"/>
</g>
<defs>
<clipPath id="clip0_398_9346">
<rect width="22" height="22" fill="white"/>
</clipPath>
</defs>
</svg>
