<svg width="22" height="22" viewBox="0 0 22 22" fill="none" xmlns="http://www.w3.org/2000/svg">
<g clip-path="url(#clip0_398_9389)">
<path d="M3.17969 15.2969C3.32934 15.3611 3.42606 15.4467 3.54068 15.5615C3.57766 15.5983 3.61464 15.6352 3.65274 15.6732C3.69227 15.713 3.7318 15.7528 3.77252 15.7939C3.81369 15.8351 3.85487 15.8763 3.89606 15.9175C3.98215 16.0036 4.0681 16.0899 4.15393 16.1763C4.2642 16.2873 4.37476 16.3981 4.48541 16.5087C4.57035 16.5936 4.65518 16.6787 4.73997 16.7638C4.80057 16.8246 4.86125 16.8854 4.92192 16.9461C4.95836 16.9828 4.9948 17.0195 5.03234 17.0573C5.06464 17.0898 5.09695 17.1223 5.13023 17.1557C5.19922 17.2305 5.19922 17.2305 5.19922 17.2734C4.75965 17.2734 4.32008 17.2734 3.86719 17.2734C3.86719 17.6279 3.86719 17.9824 3.86719 18.3477C5.15754 18.3477 6.44789 18.3477 7.77734 18.3477C7.77734 17.426 7.77734 16.5043 7.77734 15.5547C9.9043 15.5547 12.0312 15.5547 14.2227 15.5547C14.2227 17.6816 14.2227 19.8086 14.2227 22C12.0957 22 9.96875 22 7.77734 22C7.77734 21.2201 7.77734 20.4402 7.77734 19.6367C7.47525 19.6392 7.17316 19.6417 6.86191 19.6443C6.67 19.6454 6.4781 19.6464 6.28619 19.6472C5.98189 19.6485 5.67761 19.65 5.37332 19.6529C5.12786 19.6553 4.88243 19.6565 4.63696 19.6571C4.54353 19.6575 4.4501 19.6583 4.35667 19.6594C4.22534 19.661 4.09406 19.6612 3.96271 19.6611C3.92448 19.6619 3.88625 19.6627 3.84686 19.6634C3.50475 19.6607 3.26189 19.5251 2.97559 19.3494C2.69895 19.065 2.57107 18.7598 2.57393 18.3686C2.57399 18.3373 2.57405 18.3061 2.57411 18.2738C2.57435 18.174 2.57489 18.0742 2.57544 17.9744C2.57565 17.9066 2.57585 17.8389 2.57603 17.7712C2.57646 17.6053 2.5773 17.4394 2.57812 17.2734C2.13855 17.2734 1.69898 17.2734 1.24609 17.2734C1.53613 16.9351 1.53613 16.9351 1.68701 16.7847C1.72054 16.7512 1.75407 16.7176 1.78861 16.6831C1.82394 16.648 1.85926 16.6129 1.89566 16.5767C1.93249 16.5399 1.96932 16.5032 2.00727 16.4653C2.12405 16.3487 2.24098 16.2324 2.35791 16.116C2.43748 16.0366 2.51704 15.9572 2.59659 15.8779C2.79084 15.6841 2.98522 15.4904 3.17969 15.2969Z" fill="white"/>
<path d="M15.5547 7.77734C17.6816 7.77734 19.8086 7.77734 22 7.77734C22 9.9043 22 12.0312 22 14.2227C21.1492 14.2227 20.2984 14.2227 19.4219 14.2227C19.4244 14.5248 19.4269 14.8268 19.4294 15.1381C19.4305 15.33 19.4316 15.5219 19.4324 15.7138C19.4336 16.0181 19.4352 16.3224 19.4381 16.6267C19.4404 16.8721 19.4417 17.1176 19.4423 17.363C19.4427 17.4565 19.4434 17.5499 19.4446 17.6433C19.4462 17.7747 19.4464 17.9059 19.4463 18.0373C19.447 18.0755 19.4478 18.1138 19.4486 18.1531C19.4458 18.4952 19.3102 18.7381 19.1345 19.0244C18.8502 19.301 18.5449 19.4289 18.1538 19.4261C18.1225 19.426 18.0912 19.4259 18.059 19.4259C17.9592 19.4256 17.8593 19.4251 17.7595 19.4246C17.6918 19.4243 17.6241 19.4241 17.5563 19.424C17.3904 19.4235 17.2245 19.4227 17.0586 19.4219C17.0586 19.8614 17.0586 20.301 17.0586 20.7539C16.7202 20.4639 16.7202 20.4639 16.5698 20.313C16.5363 20.2795 16.5028 20.2459 16.4682 20.2114C16.4331 20.1761 16.398 20.1407 16.3619 20.1043C16.3251 20.0675 16.2883 20.0307 16.2504 19.9927C16.1339 19.876 16.0175 19.759 15.9011 19.6421C15.8218 19.5625 15.7424 19.483 15.663 19.4034C15.4693 19.2092 15.2756 19.0148 15.082 18.8203C15.1462 18.6707 15.2318 18.5739 15.3467 18.4593C15.3835 18.4223 15.4203 18.3854 15.4583 18.3473C15.4981 18.3077 15.538 18.2682 15.579 18.2275C15.6202 18.1863 15.6614 18.1451 15.7026 18.1039C15.7888 18.0178 15.8751 17.9319 15.9615 17.8461C16.0725 17.7358 16.1832 17.6252 16.2938 17.5146C16.3788 17.4297 16.4638 17.3448 16.5489 17.26C16.6098 17.1994 16.6705 17.1388 16.7313 17.0781C16.7863 17.0234 16.7863 17.0234 16.8425 16.9677C16.875 16.9354 16.9074 16.9031 16.9409 16.8698C17.0156 16.8008 17.0156 16.8008 17.0586 16.8008C17.0586 17.2404 17.0586 17.6799 17.0586 18.1328C17.4131 18.1328 17.7676 18.1328 18.1328 18.1328C18.1328 16.8425 18.1328 15.5521 18.1328 14.2227C17.282 14.2227 16.4312 14.2227 15.5547 14.2227C15.5547 12.0957 15.5547 9.96875 15.5547 7.77734Z" fill="white"/>
<path d="M4.94141 1.24609C5.27979 1.53613 5.27979 1.53613 5.43017 1.68701C5.46369 1.72054 5.49722 1.75407 5.53176 1.78861C5.56687 1.82394 5.60197 1.85926 5.63814 1.89566C5.69329 1.95091 5.69329 1.95091 5.74956 2.00727C5.8661 2.12405 5.98249 2.24098 6.09888 2.35791C6.17823 2.43748 6.25759 2.51704 6.33697 2.59659C6.53075 2.79084 6.72441 2.98522 6.91797 3.17969C6.85376 3.32934 6.76819 3.42606 6.65335 3.54068C6.6165 3.57766 6.57966 3.61464 6.54169 3.65274C6.48194 3.71203 6.48194 3.71203 6.42097 3.77252C6.37976 3.81369 6.33856 3.85487 6.29738 3.89606C6.21122 3.98215 6.12492 4.0681 6.0385 4.15393C5.9275 4.2642 5.81679 4.37476 5.70616 4.48541C5.62121 4.57035 5.53615 4.65518 5.45105 4.73997C5.39024 4.80057 5.32949 4.86125 5.26874 4.92192C5.23203 4.95836 5.19532 4.9948 5.1575 5.03234C5.12503 5.06464 5.09256 5.09695 5.05911 5.13023C4.98438 5.19922 4.98438 5.19922 4.94141 5.19922C4.94141 4.75965 4.94141 4.32008 4.94141 3.86719C4.58691 3.86719 4.23242 3.86719 3.86719 3.86719C3.86719 5.15754 3.86719 6.44789 3.86719 7.77734C4.71797 7.77734 5.56875 7.77734 6.44531 7.77734C6.44531 9.9043 6.44531 12.0312 6.44531 14.2227C4.31836 14.2227 2.19141 14.2227 0 14.2227C0 12.0957 0 9.96875 0 7.77734C0.850781 7.77734 1.70156 7.77734 2.57812 7.77734C2.57563 7.47525 2.57314 7.17316 2.57057 6.86191C2.56947 6.67 2.56844 6.4781 2.56763 6.28619C2.56635 5.98189 2.56484 5.67761 2.56192 5.37332C2.55958 5.12786 2.5583 4.88243 2.55774 4.63696C2.55735 4.54353 2.55657 4.4501 2.55541 4.35667C2.55384 4.22534 2.55364 4.09406 2.55373 3.96271C2.55296 3.92448 2.55219 3.88625 2.55139 3.84686C2.55417 3.50475 2.68979 3.26189 2.86548 2.97559C3.1498 2.69895 3.45507 2.57107 3.84621 2.57393C3.8775 2.57399 3.90879 2.57405 3.94103 2.57411C4.04085 2.57435 4.14066 2.57489 4.24048 2.57544C4.3082 2.57565 4.37593 2.57585 4.44366 2.57603C4.60958 2.57646 4.77549 2.5773 4.94141 2.57812C4.94141 2.13855 4.94141 1.69898 4.94141 1.24609Z" fill="white"/>
<path d="M7.77734 0C9.9043 0 12.0312 0 14.2227 0C14.2227 0.779883 14.2227 1.55977 14.2227 2.36328C14.5248 2.36079 14.8268 2.3583 15.1381 2.35573C15.33 2.35463 15.5219 2.3536 15.7138 2.35279C16.0181 2.35151 16.3224 2.35 16.6267 2.34707C16.8721 2.34473 17.1176 2.34345 17.363 2.3429C17.4565 2.3425 17.5499 2.34173 17.6433 2.34057C17.7747 2.339 17.9059 2.33879 18.0373 2.33889C18.0946 2.33773 18.0946 2.33773 18.1531 2.33655C18.4952 2.33933 18.7381 2.47495 19.0244 2.65063C19.301 2.93495 19.4289 3.24023 19.4261 3.63136C19.426 3.6783 19.426 3.6783 19.4259 3.72618C19.4256 3.826 19.4251 3.92582 19.4246 4.02563C19.4243 4.09336 19.4241 4.16109 19.424 4.22881C19.4235 4.39473 19.4227 4.56064 19.4219 4.72656C19.8614 4.72656 20.301 4.72656 20.7539 4.72656C20.4639 5.06494 20.4639 5.06494 20.313 5.21532C20.2795 5.24885 20.2459 5.28238 20.2114 5.31692C20.1761 5.35202 20.1407 5.38713 20.1043 5.42329C20.0675 5.46006 20.0307 5.49683 19.9927 5.53472C19.876 5.65126 19.759 5.76765 19.6421 5.88403C19.5625 5.96339 19.483 6.04275 19.4034 6.12212C19.2092 6.3159 19.0148 6.50956 18.8203 6.70312C18.6707 6.63891 18.5739 6.55334 18.4593 6.4385C18.4223 6.40166 18.3854 6.36481 18.3473 6.32685C18.3077 6.28701 18.2682 6.24718 18.2275 6.20613C18.1863 6.16492 18.1451 6.12372 18.1039 6.08253C18.0178 5.99637 17.9319 5.91007 17.8461 5.82366C17.7358 5.71266 17.6252 5.60194 17.5146 5.49132C17.4297 5.40637 17.3448 5.32131 17.26 5.23621C17.1994 5.17539 17.1388 5.11465 17.0781 5.0539C17.0416 5.01719 17.0052 4.98048 16.9677 4.94265C16.9354 4.91019 16.9031 4.87772 16.8698 4.84426C16.8008 4.76953 16.8008 4.76953 16.8008 4.72656C17.2404 4.72656 17.6799 4.72656 18.1328 4.72656C18.1328 4.37207 18.1328 4.01758 18.1328 3.65234C16.8425 3.65234 15.5521 3.65234 14.2227 3.65234C14.2227 4.57402 14.2227 5.4957 14.2227 6.44531C12.0957 6.44531 9.96875 6.44531 7.77734 6.44531C7.77734 4.31836 7.77734 2.19141 7.77734 0Z" fill="white"/>
</g>
<defs>
<clipPath id="clip0_398_9389">
<rect width="22" height="22" fill="white"/>
</clipPath>
</defs>
</svg>
