<svg width="22" height="22" viewBox="0 0 22 22" fill="none" xmlns="http://www.w3.org/2000/svg">
<g clip-path="url(#clip0_398_9404)">
<path d="M10.9838 -0.0135088C11.0275 -0.0134161 11.0713 -0.0133235 11.1163 -0.0132281C11.7441 -0.0110938 12.3599 -0.000313127 12.9765 0.128825C13.0184 0.137362 13.0603 0.145899 13.1034 0.154695C15.1823 0.589565 17.0724 1.53129 18.6054 3.00773C18.6479 3.04847 18.6479 3.04847 18.6912 3.09004C19.0989 3.48296 19.4745 3.88246 19.8085 4.33976C19.8454 4.38922 19.8823 4.43868 19.9191 4.48814C20.1786 4.8401 20.4088 5.20593 20.6249 5.58586C20.6406 5.613 20.6562 5.64015 20.6724 5.66812C21.6008 7.29012 22.0204 9.12774 22.0133 10.9838C22.0133 11.0275 22.0132 11.0713 22.0131 11.1163C22.0109 11.7441 22.0002 12.3599 21.871 12.9765C21.8582 13.0393 21.8582 13.0393 21.8451 13.1034C21.4103 15.1823 20.4685 17.0724 18.9921 18.6054C18.9649 18.6337 18.9378 18.6621 18.9098 18.6912C18.5169 19.0989 18.1174 19.4745 17.6601 19.8085C17.6106 19.8454 17.5612 19.8823 17.5117 19.9191C17.1598 20.1785 16.7945 20.4098 16.414 20.6249C16.3836 20.6422 16.3532 20.6595 16.3219 20.6773C15.3278 21.237 14.2462 21.6129 13.1296 21.8415C13.0987 21.8478 13.0678 21.8541 13.036 21.8607C12.4054 21.9805 11.7812 22.0149 11.1405 22.0135C11.0142 22.0133 10.888 22.0144 10.7617 22.0154C10.187 22.0174 9.6329 21.9656 9.06633 21.871C8.99304 21.8589 8.99304 21.8589 8.91827 21.8465C7.05912 21.5126 5.29526 20.6537 3.86711 19.4218C3.83509 19.3945 3.80308 19.3673 3.77009 19.3392C3.1898 18.8317 2.64532 18.2838 2.19133 17.6601C2.15452 17.6107 2.11771 17.5613 2.08088 17.5119C1.82135 17.1599 1.59003 16.7945 1.37492 16.414C1.35764 16.3836 1.34036 16.3532 1.32255 16.3219C0.762865 15.3278 0.386938 14.2462 0.158366 13.1296C0.152035 13.0987 0.145703 13.0678 0.139179 13.036C0.0113963 12.3636 -0.0161085 11.6988 -0.0135088 11.016C-0.0134161 10.9723 -0.0133235 10.9286 -0.0132281 10.8835C-0.0110938 10.2558 -0.000313127 9.63993 0.128825 9.02336C0.137362 8.98147 0.145899 8.93958 0.154695 8.89642C0.589565 6.81751 1.53129 4.92739 3.00773 3.39445C3.03489 3.36612 3.06205 3.33779 3.09004 3.3086C3.48296 2.9009 3.88246 2.52536 4.33976 2.19133C4.38922 2.15446 4.43868 2.11759 4.48814 2.08071C4.84004 1.82129 5.20538 1.59 5.58586 1.37492C5.61624 1.35764 5.64663 1.34036 5.67794 1.32255C6.67204 0.762865 7.75361 0.386938 8.87028 0.158366C8.90117 0.152035 8.93206 0.145703 8.96389 0.139179C9.63619 0.0113963 10.3011 -0.0161085 10.9838 -0.0135088ZM9.06633 4.64054C9.02201 4.66159 8.9777 4.68264 8.93205 4.70433C7.90722 5.22166 7.2159 6.08141 6.78898 7.13273C6.6616 7.52637 6.65318 7.86372 6.82691 8.24354C6.98751 8.55238 7.24861 8.71428 7.56578 8.84544C7.85539 8.93256 8.15971 8.90437 8.43254 8.77629C8.80744 8.56248 8.93025 8.33684 9.10929 7.94914C9.40559 7.31595 9.6803 6.83963 10.3624 6.56172C10.9992 6.3421 11.7784 6.29368 12.4179 6.53117C12.4488 6.54263 12.4797 6.5541 12.5115 6.56591C12.8925 6.73266 13.1723 7.01146 13.3258 7.39692C13.4565 7.82501 13.4365 8.30375 13.2316 8.70646C12.824 9.36032 12.1767 9.7204 11.5366 10.1108C11.2679 10.2759 11.0228 10.4484 10.7851 10.6562C10.7592 10.6759 10.7333 10.6957 10.7067 10.7161C10.1701 11.1345 9.87637 11.7629 9.75383 12.4179C9.73604 12.6144 9.73381 12.8088 9.73503 13.006C9.73417 13.0558 9.73331 13.1056 9.73242 13.1568C9.73264 13.5365 9.81092 13.7892 10.017 14.1044C10.2687 14.3452 10.5664 14.4749 10.914 14.4804C11.284 14.4491 11.5093 14.2718 11.7653 14.0158C11.961 13.7306 11.9952 13.4653 12.0097 13.1269C12.0366 12.5444 12.2057 12.2615 12.6389 11.8598C12.8987 11.6401 13.1872 11.4671 13.4754 11.2881C14.506 10.643 15.4799 9.85062 15.7825 8.61599C15.9479 7.6967 15.7822 6.80778 15.2968 6.01554C15.1781 5.84729 15.0498 5.69399 14.9101 5.54289C14.8699 5.49752 14.8699 5.49752 14.8288 5.45124C14.0401 4.60612 12.8187 4.18097 11.6874 4.12492C10.7848 4.10608 9.88443 4.24513 9.06633 4.64054ZM9.88273 15.9843C9.65045 16.4066 9.69297 17.1628 9.80754 17.6195C9.88635 17.8239 10.0033 17.9328 10.1969 18.0387C10.7181 18.2066 11.4237 18.2185 11.9211 17.9743C12.1487 17.7689 12.2141 17.5766 12.246 17.2734C12.2526 17.139 12.254 17.005 12.2541 16.8705C12.2549 16.819 12.2549 16.819 12.2557 16.7665C12.2564 16.477 12.2498 16.1326 12.05 15.9037C11.8344 15.688 11.5721 15.6349 11.2737 15.6249C11.1887 15.625 11.1037 15.6257 11.0187 15.6271C10.9762 15.627 10.9337 15.6268 10.8899 15.6267C10.4851 15.6297 10.1635 15.67 9.88273 15.9843Z" fill="white"/>
</g>
<defs>
<clipPath id="clip0_398_9404">
<rect width="22" height="22" fill="white"/>
</clipPath>
</defs>
</svg>
