<svg width="22" height="22" viewBox="0 0 22 22" fill="none" xmlns="http://www.w3.org/2000/svg">
<g clip-path="url(#clip0_398_9351)">
<path d="M3.75 3.9314C3.90806 3.93188 4.06611 3.93136 4.22416 3.93098C4.53285 3.93038 4.84154 3.9307 5.15023 3.93135C5.51041 3.93208 5.87058 3.93194 6.23076 3.93178C6.87373 3.93153 7.51671 3.93213 8.15968 3.93319C8.78235 3.93422 9.40502 3.93453 10.0277 3.93407C10.7073 3.93358 11.3869 3.9335 12.0665 3.93412C12.1391 3.93419 12.2117 3.93425 12.2843 3.93432C12.3378 3.93437 12.3378 3.93437 12.3924 3.93442C12.643 3.93462 12.8935 3.93454 13.1441 3.93436C13.4497 3.93415 13.7553 3.93441 14.061 3.93526C14.2166 3.93568 14.3723 3.9359 14.528 3.93556C14.6973 3.9352 14.8666 3.93585 15.0359 3.93658C15.0843 3.93632 15.1327 3.93607 15.1826 3.9358C15.6597 3.93955 16.1332 4.01484 16.5566 4.24328C16.5854 4.25829 16.6142 4.27329 16.6439 4.28876C16.8737 4.41172 17.0799 4.55151 17.2736 4.72668C17.3129 4.76083 17.3129 4.76083 17.353 4.79566C17.8952 5.29736 18.1989 6.05028 18.2309 6.77999C18.2376 7.02375 18.2369 7.26749 18.2363 7.51132C18.2366 7.60469 18.2368 7.69807 18.2372 7.79145C18.238 8.04349 18.2379 8.29553 18.2377 8.54758C18.2375 8.75867 18.2378 8.96976 18.2381 9.18086C18.2387 9.67918 18.2386 10.1775 18.2381 10.6758C18.2376 11.1885 18.2382 11.7011 18.2394 12.2137C18.2403 12.6552 18.2406 13.0967 18.2404 13.5383C18.2402 13.8013 18.2403 14.0644 18.2411 14.3275C18.2417 14.575 18.2415 14.8225 18.2407 15.0701C18.2406 15.1604 18.2407 15.2508 18.2412 15.3411C18.2457 16.3244 18.0664 17.182 17.3596 17.9181C17.1298 18.1418 16.8748 18.3011 16.5915 18.4471C16.5513 18.4681 16.5513 18.4681 16.5103 18.4895C16.0427 18.7187 15.5785 18.7518 15.0649 18.7408C15 18.7399 14.935 18.7391 14.8701 18.7384C14.731 18.7367 14.592 18.7347 14.4529 18.7324C14.2314 18.729 14.0098 18.7274 13.7883 18.7261C13.7506 18.7258 13.7129 18.7256 13.6741 18.7254C13.5971 18.7249 13.5201 18.7245 13.4431 18.724C12.9283 18.721 12.4136 18.7169 11.8988 18.7078C11.5503 18.7017 11.2019 18.6985 10.8533 18.6984C10.6698 18.6982 10.4866 18.6967 10.3032 18.6917C9.18359 18.662 8.41979 18.9275 7.46542 19.5064C7.28813 19.6122 7.10532 19.7082 6.92353 19.806C6.85082 19.8461 6.77814 19.8862 6.7055 19.9264C6.25143 20.1737 5.78881 20.4053 5.32849 20.6407C5.29503 20.6578 5.26158 20.675 5.22711 20.6926C5.19418 20.7094 5.16124 20.7263 5.12732 20.7436C4.88559 20.8673 4.64457 20.9923 4.40449 21.1193C4.37451 21.1351 4.34454 21.1509 4.31365 21.1673C4.2544 21.1986 4.19516 21.23 4.13593 21.2614C3.93917 21.3656 3.74218 21.4694 3.54511 21.5731C3.50626 21.5937 3.4674 21.6142 3.42737 21.6354C3.39134 21.6543 3.35531 21.6733 3.31819 21.6928C3.27029 21.7181 3.27029 21.7181 3.22142 21.7438C2.99968 21.8526 2.77755 21.859 2.53535 21.8282C2.38857 21.7586 2.30477 21.6548 2.21577 21.5194C2.13899 21.1355 2.28998 20.7951 2.44404 20.4506C2.46483 20.4028 2.48562 20.355 2.50704 20.3058C2.57319 20.1542 2.64018 20.0029 2.70722 19.8517C2.75276 19.7478 2.79825 19.6439 2.84368 19.54C2.9551 19.2855 3.06722 19.0314 3.17988 18.7775C3.13773 18.7764 3.09558 18.7752 3.05215 18.7741C2.1224 18.7394 1.3494 18.4403 0.70112 17.757C0.234199 17.2174 -0.00628116 16.5972 -0.00613108 15.8883C-0.00628906 15.8482 -0.00644693 15.8081 -0.0066097 15.7667C-0.00708314 15.6322 -0.00724908 15.4977 -0.00741287 15.3632C-0.00768212 15.2668 -0.00796774 15.1704 -0.0082685 15.074C-0.00917208 14.7572 -0.00961785 14.4404 -0.010046 14.1236C-0.0102199 14.0144 -0.0103969 13.9052 -0.0105767 13.796C-0.0113015 13.3417 -0.0119304 12.8874 -0.0122417 12.4331C-0.0123238 12.3153 -0.0124062 12.1975 -0.0124902 12.0797C-0.0125214 12.0358 -0.0125214 12.0358 -0.0125532 11.991C-0.0129094 11.5174 -0.0139974 11.0438 -0.0153941 10.5702C-0.0168186 10.0832 -0.017575 9.59615 -0.0177263 9.10912C-0.0178271 8.836 -0.0182096 8.56288 -0.0192929 8.28975C-0.0202967 8.03254 -0.020474 7.77533 -0.0200338 7.51812C-0.0200126 7.42406 -0.0202818 7.33001 -0.020874 7.23596C-0.0266438 6.26478 0.170808 5.49591 0.859568 4.76965C1.68382 3.97753 2.67149 3.92681 3.75 3.9314ZM3.37055 10.6651C3.16596 10.9208 3.1106 11.1948 3.13691 11.5157C3.22524 11.8182 3.34646 12.0906 3.62081 12.265C3.92794 12.4306 4.20357 12.5144 4.55152 12.4117C4.90812 12.2656 5.14045 12.0398 5.29878 11.693C5.38785 11.2881 5.29511 10.9734 5.08393 10.6215C4.8074 10.3599 4.49631 10.253 4.1215 10.2579C3.80735 10.2874 3.58121 10.4369 3.37055 10.6651ZM8.46772 10.6456C8.27139 10.8939 8.19339 11.1321 8.20454 11.4486C8.24479 11.7511 8.37187 11.9896 8.59445 12.1984C8.85147 12.389 9.14094 12.4776 9.46171 12.4542C9.80637 12.3846 10.0656 12.1871 10.2617 11.9009C10.4093 11.6567 10.4332 11.4087 10.3986 11.129C10.2905 10.7767 10.1083 10.5483 9.79707 10.3563C9.33181 10.12 8.81136 10.2854 8.46772 10.6456ZM13.0736 10.7019C12.8709 11.0157 12.8538 11.2772 12.8908 11.6446C12.9632 11.9139 13.1485 12.1182 13.3635 12.2892C13.6675 12.455 13.9656 12.4971 14.2985 12.412C14.6094 12.2927 14.8238 12.054 14.9855 11.7709C15.0861 11.5139 15.0839 11.2276 15.0015 10.9664C14.8614 10.6598 14.6729 10.4864 14.3867 10.318C13.8756 10.1672 13.4115 10.2833 13.0736 10.7019Z" fill="white"/>
<path d="M6.80503 0.150454C6.88685 0.150098 6.88685 0.150098 6.97032 0.149734C7.11984 0.149107 7.26935 0.149533 7.41887 0.150152C7.58085 0.150633 7.74282 0.150115 7.9048 0.149729C8.22134 0.149133 8.53788 0.149453 8.85443 0.150102C9.22358 0.150829 9.59273 0.150688 9.96188 0.150528C10.6208 0.150275 11.2797 0.150882 11.9386 0.151943C12.577 0.152971 13.2154 0.153275 13.8539 0.152825C14.5503 0.152334 15.2467 0.152252 15.9431 0.152872C16.0175 0.152937 16.0918 0.153003 16.1661 0.153068C16.2027 0.1531 16.2393 0.153133 16.277 0.153166C16.5339 0.15337 16.7908 0.153291 17.0478 0.153108C17.3611 0.152896 17.6744 0.153156 17.9877 0.154006C18.1474 0.154428 18.3071 0.154651 18.4667 0.154311C18.6402 0.153949 18.8137 0.154595 18.9871 0.155332C19.037 0.155074 19.087 0.154816 19.1384 0.15455C19.5883 0.158017 20.0081 0.2462 20.4102 0.451287C20.439 0.465914 20.4679 0.48054 20.4976 0.495609C21.1693 0.854316 21.6517 1.49143 21.9053 2.20136C22.0383 2.65162 22.0184 3.10792 22.0174 3.57278C22.0176 3.66876 22.0179 3.76473 22.0183 3.8607C22.019 4.12021 22.019 4.37971 22.0187 4.63922C22.0186 4.8564 22.0189 5.07357 22.0191 5.29075C22.0198 5.83267 22.0196 6.37459 22.0191 6.91651C22.0187 7.38577 22.0192 7.85502 22.0202 8.32427C22.0213 8.80756 22.0217 9.29085 22.0214 9.77414C22.0213 10.0449 22.0214 10.3156 22.0221 10.5864C22.0228 10.8411 22.0226 11.0959 22.0218 11.3506C22.0216 11.4437 22.0218 11.5367 22.0222 11.6298C22.0266 12.6004 21.8471 13.4139 21.1406 14.1368C20.6842 14.537 20.0912 14.9103 19.4648 14.9103C19.4647 14.8677 19.4646 14.8252 19.4645 14.7813C19.462 13.7437 19.4587 12.7061 19.4547 11.6685C19.4528 11.1667 19.4511 10.6649 19.45 10.1631C19.449 9.72547 19.4475 9.28786 19.4456 8.85025C19.4445 8.61877 19.4437 8.38728 19.4435 8.15579C19.4432 7.93741 19.4423 7.71904 19.441 7.50065C19.4407 7.42098 19.4405 7.34131 19.4406 7.26164C19.4413 6.14995 19.1888 5.13697 18.4766 4.25402C18.447 4.21735 18.4174 4.18069 18.3869 4.14291C17.9108 3.58426 17.2726 3.18319 16.5806 2.94885C16.5503 2.93859 16.5201 2.92833 16.489 2.91776C16.057 2.78062 15.6227 2.73731 15.1714 2.73815C15.1225 2.7379 15.0736 2.73765 15.0233 2.7374C14.861 2.73667 14.6987 2.73654 14.5364 2.73642C14.4195 2.73606 14.3026 2.73558 14.1857 2.73511C13.9347 2.73415 13.6837 2.73351 13.4328 2.73307C13.0699 2.73244 12.7071 2.73134 12.3442 2.73014C11.7554 2.72819 11.1666 2.72661 10.5778 2.72527C10.0061 2.72398 9.43445 2.7225 8.86277 2.72078C8.82748 2.72068 8.79219 2.72057 8.75583 2.72046C8.57878 2.71993 8.40174 2.7194 8.22469 2.71886C6.75787 2.71442 5.29104 2.71058 3.82422 2.70715C3.83038 2.64566 3.83673 2.5842 3.84316 2.52275C3.84668 2.48852 3.8502 2.45429 3.85382 2.41902C3.93736 1.80279 4.37755 1.17318 4.8605 0.798562C5.46026 0.365613 6.05618 0.144239 6.80503 0.150454Z" fill="white"/>
</g>
<defs>
<clipPath id="clip0_398_9351">
<rect width="22" height="22" fill="white"/>
</clipPath>
</defs>
</svg>
