<svg width="22" height="22" viewBox="0 0 22 22" fill="none" xmlns="http://www.w3.org/2000/svg">
<g clip-path="url(#clip0_398_9395)">
<path d="M6.95959 8.28864C7.00399 8.2887 7.04839 8.28876 7.09413 8.28882C7.23509 8.28906 7.37605 8.2896 7.51701 8.29015C7.61293 8.29036 7.70885 8.29056 7.80478 8.29073C8.03918 8.29121 8.27358 8.29192 8.50797 8.29283C8.51312 8.33317 8.51826 8.37351 8.52356 8.41508C8.53071 8.46851 8.53787 8.52194 8.54523 8.577C8.55215 8.62974 8.55907 8.68249 8.56619 8.73684C8.66738 9.31206 9.00543 9.80499 9.46839 10.1526C9.84533 10.3972 10.2536 10.5225 10.6967 10.5755C10.7261 10.5793 10.7555 10.583 10.7857 10.5868C10.8572 10.5958 10.9287 10.6045 11.0002 10.6131C11.0011 10.697 11.0011 10.697 11.0021 10.7826C11.0046 10.9907 11.0079 11.1987 11.0114 11.4067C11.0129 11.4967 11.0141 11.5866 11.015 11.6766C11.0165 11.8061 11.0187 11.9355 11.0211 12.065C11.0216 12.1251 11.0216 12.1251 11.022 12.1863C11.027 12.4096 11.0474 12.5686 11.172 12.7616C11.3502 12.9303 11.5051 13.0106 11.7494 13.0328C12.004 13.0105 12.1785 12.8859 12.3698 12.724C12.4107 12.6898 12.4517 12.6555 12.4938 12.6203C12.5272 12.5922 12.5272 12.5922 12.5612 12.5636C12.6941 12.4528 12.8288 12.3442 12.9633 12.2352C13.0223 12.1873 13.0812 12.1394 13.1402 12.0915C13.2304 12.0183 13.3206 11.9451 13.4108 11.8718C13.8347 11.5277 13.8347 11.5277 14.2577 11.1825C14.3106 11.1406 14.3106 11.1406 14.3646 11.0978C14.481 11.0038 14.481 11.0038 14.5731 10.8988C14.8268 10.6409 15.0235 10.5781 15.3777 10.5692C15.5463 10.5679 15.7145 10.5714 15.883 10.5754C15.9729 10.5761 16.0627 10.5767 16.1526 10.577C16.3878 10.5785 16.6229 10.5823 16.8581 10.5866C17.0986 10.5906 17.3391 10.5923 17.5797 10.5943C18.0506 10.5984 18.5215 10.6051 18.9923 10.6131C19.1254 11.1004 19.1895 11.5485 19.1865 12.0539C19.1867 12.1214 19.187 12.1889 19.1874 12.2564C19.1881 12.4374 19.1879 12.6183 19.1873 12.7992C19.1869 12.9901 19.1873 13.1809 19.1875 13.3718C19.1879 13.6921 19.1875 14.0123 19.1866 14.3326C19.1857 14.701 19.186 15.0694 19.1869 15.4378C19.1877 15.7561 19.1878 16.0745 19.1874 16.3928C19.1871 16.582 19.1871 16.7713 19.1876 16.9605C19.1882 17.1386 19.1878 17.3166 19.1868 17.4946C19.1866 17.5593 19.1866 17.624 19.187 17.6887C19.1902 18.269 19.1166 18.8748 18.8339 19.3922C18.8192 19.4202 18.8045 19.4482 18.7893 19.477C18.329 20.3263 17.5992 20.944 16.672 21.2264C16.1181 21.3576 15.5774 21.3739 15.0104 21.372C14.9191 21.3722 14.8279 21.3724 14.7367 21.3727C14.4912 21.3733 14.2456 21.3731 14 21.3726C13.7418 21.3723 13.4835 21.3726 13.2252 21.3728C12.7916 21.3731 12.3581 21.3728 11.9245 21.3721C11.4249 21.3714 10.9253 21.3717 10.4257 21.3724C9.99494 21.373 9.56421 21.373 9.13348 21.3727C8.877 21.3725 8.62053 21.3725 8.36405 21.3729C8.1228 21.3733 7.88157 21.373 7.64032 21.3723C7.55235 21.3721 7.46438 21.3721 7.37641 21.3724C6.17784 21.376 5.17523 21.142 4.28931 20.2798C3.57355 19.548 3.33065 18.6032 3.33504 17.6068C3.33487 17.5391 3.33464 17.4714 3.33436 17.4037C3.33378 17.2217 3.334 17.0397 3.33441 16.8578C3.33474 16.6662 3.33443 16.4746 3.33423 16.283C3.334 15.9614 3.3343 15.6398 3.33492 15.3182C3.33562 14.9478 3.33539 14.5775 3.33468 14.2071C3.33409 13.8875 3.33402 13.568 3.33435 13.2485C3.33455 13.0583 3.33458 12.8681 3.33415 12.678C3.33378 12.4991 3.33405 12.3202 3.33478 12.1413C3.33495 12.0761 3.33491 12.011 3.33462 11.9458C3.3306 10.9408 3.63978 10.0386 4.3484 9.31334C5.06688 8.60887 5.95956 8.28343 6.95959 8.28864ZM7.86881 12.5145C7.75245 12.6955 7.7706 12.9009 7.77029 13.1092C7.77014 13.1428 7.77 13.1764 7.76985 13.211C7.76964 13.2819 7.76954 13.3527 7.76954 13.4236C7.76945 13.5318 7.76867 13.6399 7.76785 13.7481C7.76773 13.8171 7.76764 13.8861 7.7676 13.9551C7.76729 13.9873 7.76698 14.0195 7.76667 14.0527C7.76765 14.2796 7.78566 14.4455 7.94938 14.6092C8.10747 14.6268 8.20887 14.6362 8.34441 14.5476C8.46118 14.3818 8.44668 14.2302 8.44486 14.0318C8.44503 13.9924 8.44519 13.953 8.44536 13.9124C8.44548 13.8292 8.44516 13.746 8.44444 13.6628C8.44352 13.5355 8.44443 13.4082 8.44553 13.2809C8.44542 13.2 8.4452 13.1191 8.44486 13.0382C8.44538 12.9811 8.44538 12.9811 8.44592 12.9229C8.44314 12.7086 8.44314 12.7086 8.34424 12.5226C8.19078 12.4218 8.02427 12.4109 7.86881 12.5145ZM14.1731 12.5224C14.0542 12.688 14.0693 12.839 14.0711 13.0382C14.0709 13.0776 14.0708 13.117 14.0706 13.1576C14.0705 13.2408 14.0708 13.324 14.0715 13.4072C14.0724 13.5346 14.0715 13.6618 14.0704 13.7891C14.0705 13.87 14.0707 13.9509 14.0711 14.0318C14.0707 14.0699 14.0704 14.1079 14.07 14.1471C14.0725 14.3618 14.0725 14.3618 14.1732 14.5473C14.3002 14.6323 14.3738 14.6342 14.5236 14.6092C14.646 14.5133 14.689 14.4567 14.7384 14.3085C14.7431 14.1936 14.7455 14.0799 14.7457 13.965C14.7458 13.9314 14.7459 13.8978 14.7461 13.8631C14.7463 13.7919 14.7464 13.7208 14.7464 13.6496C14.7465 13.5411 14.7473 13.4326 14.7481 13.324C14.7482 13.2548 14.7483 13.1856 14.7483 13.1164C14.7488 13.0679 14.7488 13.0679 14.7493 13.0185C14.7485 12.843 14.7386 12.7015 14.6525 12.5467C14.4834 12.434 14.349 12.4055 14.1731 12.5224ZM9.32438 16.7147C9.29457 16.8311 9.30394 16.9405 9.32438 17.0585C9.3839 17.1507 9.4216 17.1767 9.52418 17.2113C9.66308 17.2375 9.80024 17.2367 9.94104 17.2366C9.97257 17.2367 10.0041 17.2369 10.0366 17.237C10.1406 17.2374 10.2447 17.2375 10.3487 17.2376C10.4212 17.2377 10.4937 17.2378 10.5661 17.238C10.7179 17.2382 10.8697 17.2383 11.0216 17.2383C11.2159 17.2383 11.4103 17.2389 11.6047 17.2396C11.7543 17.2401 11.9039 17.2402 12.0536 17.2402C12.1252 17.2402 12.1969 17.2404 12.2685 17.2407C12.3688 17.2412 12.4691 17.241 12.5693 17.2408C12.6136 17.2411 12.6136 17.2411 12.6587 17.2415C12.8761 17.2401 13.0352 17.2149 13.1916 17.0585C13.2119 16.884 13.2119 16.884 13.1916 16.7147C13.0847 16.6033 13.0218 16.586 12.8664 16.5694C12.8041 16.5687 12.7418 16.5686 12.6795 16.5691C12.6454 16.5689 12.6112 16.5687 12.5761 16.5684C12.4634 16.5679 12.3508 16.5682 12.2382 16.5687C12.1599 16.5686 12.0815 16.5685 12.0032 16.5683C11.839 16.5681 11.6749 16.5684 11.5108 16.569C11.3004 16.5697 11.09 16.5693 10.8797 16.5685C10.7179 16.5681 10.5562 16.5682 10.3944 16.5686C10.3168 16.5686 10.2393 16.5685 10.1617 16.5682C10.0533 16.5679 9.9449 16.5684 9.83648 16.5691C9.80442 16.5689 9.77236 16.5686 9.73933 16.5683C9.56157 16.5705 9.45029 16.5838 9.32438 16.7147Z" fill="white"/>
<path d="M10.9721 0.633348C11.0107 0.633184 11.0493 0.633019 11.089 0.63285C11.2172 0.632409 11.3455 0.632577 11.4737 0.632748C11.5661 0.632561 11.6584 0.632338 11.7508 0.632083C12.0009 0.631508 12.2511 0.631482 12.5013 0.631591C12.7105 0.631637 12.9197 0.631427 13.1288 0.631221C13.6225 0.630745 14.1162 0.630726 14.6099 0.630986C15.1184 0.631245 15.6269 0.630716 16.1355 0.629801C16.5728 0.629043 17.0101 0.628786 17.4474 0.628926C17.7082 0.629004 17.9691 0.628892 18.23 0.628294C18.4754 0.627752 18.7208 0.627838 18.9663 0.628397C19.0561 0.628499 19.1459 0.628383 19.2356 0.628027C19.9999 0.625218 20.6509 0.683299 21.2265 1.24611C21.6316 1.72781 21.7252 2.22081 21.7214 2.83806C21.7216 2.9013 21.7219 2.96453 21.7223 3.02776C21.7231 3.19795 21.7228 3.36812 21.7222 3.53831C21.7218 3.7173 21.7222 3.89629 21.7224 4.07527C21.7228 4.37567 21.7224 4.67606 21.7215 4.97645C21.7206 5.32271 21.7209 5.66895 21.7218 6.01521C21.7226 6.31369 21.7227 6.61216 21.7223 6.91064C21.722 7.08839 21.722 7.26614 21.7225 7.44389C21.723 7.61104 21.7227 7.77817 21.7217 7.94531C21.7215 8.0063 21.7215 8.06728 21.7219 8.12827C21.7252 8.70058 21.5975 9.18173 21.2077 9.61159C21.1713 9.64438 21.135 9.67717 21.0976 9.71096C21.0595 9.7464 21.0213 9.78185 20.9821 9.81838C20.5344 10.1813 20.0316 10.2413 19.4738 10.2307C19.3728 10.2296 19.2718 10.2285 19.1708 10.2274C19.1179 10.2267 19.0649 10.226 19.0103 10.2252C18.7564 10.2221 18.5025 10.2214 18.2486 10.2204C17.8601 10.2189 17.4717 10.2167 17.0832 10.2105C16.7918 10.2059 16.5006 10.2046 16.2091 10.205C16.0988 10.2046 15.9885 10.2032 15.8781 10.2006C15.2686 10.187 14.826 10.2002 14.3681 10.6347C14.3166 10.6867 14.2656 10.7391 14.2152 10.7922C14.0795 10.9285 13.9277 11.0449 13.7768 11.1638C13.7195 11.2101 13.6623 11.2565 13.6052 11.303C13.5785 11.3247 13.5517 11.3464 13.5242 11.3687C13.4202 11.4532 13.3165 11.5381 13.2128 11.6231C12.959 11.8308 12.7051 12.0384 12.4498 12.2443C12.3552 12.3206 12.2628 12.3978 12.1711 12.4776C12.0235 12.6035 11.9151 12.693 11.7169 12.7053C11.5387 12.6721 11.4962 12.6435 11.3866 12.5039C11.366 12.3968 11.366 12.3968 11.3671 12.2754C11.3671 12.2298 11.3671 12.1842 11.3671 12.1372C11.3685 12.0638 11.3685 12.0638 11.3698 11.989C11.3701 11.9387 11.3703 11.8884 11.3706 11.8365C11.3715 11.6758 11.3737 11.5152 11.3759 11.3545C11.3767 11.2456 11.3775 11.1366 11.3782 11.0277C11.3801 10.7607 11.383 10.4936 11.3866 10.2266C11.3342 10.2271 11.2818 10.2276 11.2278 10.2282C11.158 10.2286 11.0882 10.229 11.0184 10.2294C10.984 10.2298 10.9495 10.2302 10.9141 10.2306C10.352 10.233 9.86765 10.0857 9.43943 9.70944C8.93097 9.17783 8.83828 8.57488 8.83966 7.86879C8.83948 7.80994 8.83925 7.75109 8.839 7.69225C8.83843 7.53359 8.8384 7.37494 8.83851 7.21628C8.83855 7.08325 8.83834 6.95022 8.83814 6.81719C8.83766 6.503 8.83764 6.18881 8.8379 5.87462C8.83816 5.55185 8.83763 5.22909 8.83672 4.90632C8.83596 4.62798 8.8357 4.34965 8.83584 4.07131C8.83592 3.90561 8.83581 3.73992 8.83521 3.57422C8.83466 3.41822 8.83476 3.26223 8.83531 3.10623C8.83546 3.02265 8.83498 2.93906 8.83447 2.85548C8.83812 2.23727 8.96035 1.6922 9.37968 1.22144C9.82953 0.788755 10.3601 0.630533 10.9721 0.633348ZM11.0699 4.75276C10.8661 5.0519 10.8258 5.37384 10.8881 5.7256C10.9836 6.08279 11.2283 6.35083 11.5451 6.53395C11.8482 6.66892 12.198 6.67009 12.5146 6.57424C12.8222 6.43542 13.0743 6.18774 13.2068 5.87834C13.3285 5.53536 13.3019 5.1836 13.1483 4.85549C12.951 4.5707 12.7218 4.32909 12.3749 4.25392C11.8168 4.18645 11.4278 4.31605 11.0699 4.75276ZM14.2926 4.75595C14.0924 5.04057 14.0504 5.3276 14.0937 5.67189C14.1937 6.04118 14.4354 6.34078 14.765 6.53127C15.0705 6.6691 15.4208 6.67121 15.7399 6.57155C16.1062 6.40461 16.3133 6.12587 16.4569 5.75783C16.5465 5.45078 16.4933 5.18637 16.371 4.89846C16.2235 4.6298 15.9853 4.38397 15.6922 4.2744C15.1115 4.14877 14.6637 4.30082 14.2926 4.75595ZM17.5515 4.68344C17.3334 4.98012 17.2648 5.30967 17.3163 5.67189C17.4173 6.0413 17.6575 6.34046 17.9877 6.53127C18.2769 6.66112 18.5832 6.66974 18.8882 6.58716C19.2453 6.443 19.4804 6.22194 19.639 5.87129C19.7608 5.53092 19.741 5.22765 19.5937 4.89846C19.4224 4.59097 19.1553 4.36562 18.8202 4.25392C18.3048 4.20701 17.9082 4.293 17.5515 4.68344Z" fill="white"/>
<path d="M2.81275 4.76595C3.1674 5.05578 3.3912 5.43778 3.48061 5.8865C3.52578 6.46109 3.41848 6.91207 3.0625 7.36976C2.79058 7.66695 2.53328 7.77779 2.14858 7.90603C2.14858 9.15384 2.14858 10.4017 2.14858 11.6873C2.41799 11.6873 2.6874 11.6873 2.96498 11.6873C2.96498 13.7575 2.96498 15.8277 2.96498 17.9607C2.1991 17.9607 1.64106 17.9527 1.06059 17.4436C0.528486 16.8862 0.458802 16.2295 0.461381 15.49C0.461299 15.4368 0.461217 15.3836 0.461132 15.3288C0.461074 15.2171 0.461229 15.1055 0.461591 14.9939C0.462051 14.8244 0.461594 14.655 0.461045 14.4856C0.461102 14.3764 0.461212 14.2672 0.461381 14.158C0.46112 14.0832 0.46112 14.0832 0.460854 14.0068C0.464873 13.294 0.582277 12.7299 1.07738 12.196C1.16029 12.117 1.16029 12.117 1.24995 12.0719C1.38371 11.9355 1.35668 11.7825 1.35563 11.5987C1.35607 11.5589 1.35651 11.519 1.35697 11.478C1.35824 11.3462 1.3583 11.2144 1.35835 11.0825C1.359 10.9912 1.35972 10.8999 1.36051 10.8085C1.36239 10.568 1.36324 10.3275 1.36389 10.0869C1.36473 9.84154 1.36653 9.59616 1.36826 9.35077C1.3715 8.86919 1.37365 8.38761 1.37514 7.90603C1.34547 7.89738 1.31579 7.88874 1.28522 7.87983C1.24639 7.86838 1.20755 7.85693 1.16754 7.84513C1.12901 7.83383 1.09047 7.82252 1.05077 7.81088C0.630539 7.67619 0.330839 7.33159 0.134416 6.94997C-0.0644471 6.53644 -0.077516 5.97568 0.0672771 5.54006C0.289851 5.02908 0.659259 4.71401 1.166 4.51066C1.73133 4.31734 2.32524 4.4311 2.81275 4.76595Z" fill="white"/>
<path d="M19.5508 11.6875C20.3949 11.6875 20.9168 11.7151 21.5242 12.279C21.9712 12.7606 22.0205 13.3003 22.0201 13.9239C22.0204 13.9952 22.0208 14.0665 22.0211 14.1379C22.0217 14.287 22.0218 14.436 22.0215 14.5851C22.0213 14.7747 22.0226 14.9643 22.0243 15.1538C22.0254 15.3011 22.0256 15.4483 22.0254 15.5956C22.0255 15.6654 22.0259 15.7352 22.0267 15.805C22.0325 16.3956 21.9375 16.8874 21.5372 17.35C20.9511 17.9331 20.3672 17.9609 19.5508 17.9609C19.5508 15.8907 19.5508 13.8205 19.5508 11.6875Z" fill="white"/>
</g>
<defs>
<clipPath id="clip0_398_9395">
<rect width="22" height="22" fill="white"/>
</clipPath>
</defs>
</svg>
