<svg width="22" height="22" viewBox="0 0 22 22" fill="none" xmlns="http://www.w3.org/2000/svg">
<g clip-path="url(#clip0_398_9401)">
<path d="M9.76103 -0.0290734C9.79069 -0.0295879 9.82035 -0.0301024 9.85091 -0.0306325C9.94832 -0.0320088 10.0456 -0.0318093 10.1431 -0.0314652C10.2112 -0.0318286 10.2794 -0.0322429 10.3476 -0.0327057C10.4903 -0.0334089 10.6329 -0.0332946 10.7756 -0.0326401C10.9577 -0.0318981 11.1398 -0.0334924 11.322 -0.0357451C11.4627 -0.0371719 11.6034 -0.0371915 11.7442 -0.036813C11.8113 -0.0368284 11.8784 -0.0373091 11.9456 -0.0382784C12.5336 -0.0456434 12.5336 -0.0456433 12.7572 0.138794C12.8672 0.258172 12.94 0.364893 12.978 0.524779C12.9887 0.566979 12.9994 0.609178 13.0105 0.652657C13.0206 0.697862 13.0307 0.743066 13.0411 0.789641C13.0528 0.837227 13.0645 0.884814 13.0765 0.933842C13.1088 1.06596 13.1399 1.1983 13.1708 1.33074C13.208 1.48776 13.2475 1.64421 13.2867 1.80075C13.3186 1.92918 13.3504 2.05764 13.3822 2.18613C13.3899 2.21735 13.3976 2.24858 13.4056 2.28076C13.4275 2.3699 13.4491 2.4591 13.4706 2.54834C13.4831 2.59973 13.4956 2.65113 13.5085 2.70408C13.5352 2.83603 13.5352 2.83603 13.5352 3.0079C13.5694 3.01156 13.6035 3.01521 13.6386 3.01898C13.8386 3.06028 14.0145 3.13632 14.2013 3.21738C14.2369 3.2325 14.2725 3.24762 14.3092 3.2632C14.4615 3.32833 14.6065 3.39294 14.7505 3.47552C14.8625 3.53595 14.8625 3.53595 14.963 3.49458C15.109 3.42474 15.2473 3.34456 15.3858 3.26118C15.4147 3.2439 15.4437 3.22661 15.4736 3.2088C15.5661 3.15362 15.6585 3.09822 15.7508 3.04281C15.8117 3.0064 15.8726 2.97001 15.9335 2.93363C15.9634 2.91581 15.9932 2.89798 16.0239 2.87962C16.0835 2.84408 16.143 2.80858 16.2026 2.77311C16.3382 2.69234 16.4736 2.61126 16.6082 2.52879C16.6533 2.50157 16.6984 2.47434 16.7448 2.44629C16.7836 2.42252 16.8225 2.39875 16.8625 2.37426C17.0398 2.28764 17.2119 2.27086 17.4024 2.3204C17.6975 2.46072 17.9038 2.67415 18.1322 2.90417C18.1729 2.94475 18.2136 2.98531 18.2543 3.02586C18.3391 3.11053 18.4238 3.19542 18.5082 3.28049C18.6161 3.38909 18.7245 3.4971 18.8332 3.60495C18.9171 3.68847 19.0008 3.7723 19.0844 3.85622C19.1435 3.91546 19.2029 3.97445 19.2623 4.03343C19.2983 4.06985 19.3343 4.10626 19.3714 4.14378C19.4188 4.19138 19.4188 4.19138 19.4672 4.23994C19.6315 4.43636 19.71 4.62243 19.696 4.87604C19.6355 5.28074 19.3146 5.6706 19.1024 6.01572C19.0703 6.06807 19.0383 6.12044 19.0063 6.17282C18.9906 6.19845 18.9749 6.22408 18.9588 6.25049C18.9277 6.30126 18.8968 6.35209 18.866 6.40298C18.7965 6.51746 18.7257 6.6303 18.651 6.74148C18.5081 6.94461 18.5081 6.94461 18.4943 7.18158C18.5281 7.24256 18.5281 7.24256 18.5626 7.30478C18.5863 7.35908 18.6094 7.41359 18.6322 7.46826C18.6581 7.52661 18.6842 7.58491 18.7103 7.64316C18.9923 8.27261 18.9923 8.27261 18.9923 8.46493C19.0384 8.46951 19.0845 8.47409 19.132 8.4788C19.3762 8.50951 19.6123 8.57021 19.8508 8.62976C19.8994 8.64179 19.948 8.65382 19.9981 8.66622C20.1003 8.69162 20.2026 8.71712 20.3048 8.74272C20.4611 8.78179 20.6176 8.82026 20.7741 8.8587C20.8736 8.88351 20.9732 8.90835 21.0727 8.93323C21.1194 8.94464 21.1661 8.95606 21.2142 8.96783C21.2578 8.97886 21.3014 8.9899 21.3464 9.00127C21.3845 9.01077 21.4227 9.02028 21.4621 9.03008C21.7061 9.11212 21.8545 9.24037 22.0001 9.45322C22.028 9.59936 22.028 9.59936 22.0293 9.76103C22.0298 9.79069 22.0303 9.82035 22.0308 9.85091C22.0322 9.94832 22.032 10.0456 22.0316 10.1431C22.032 10.2112 22.0324 10.2794 22.0329 10.3476C22.0336 10.4903 22.0335 10.6329 22.0328 10.7756C22.0321 10.9577 22.0337 11.1398 22.0359 11.322C22.0374 11.4627 22.0374 11.6034 22.037 11.7442C22.037 11.8113 22.0375 11.8784 22.0385 11.9456C22.0458 12.5336 22.0458 12.5336 21.8614 12.7572C21.742 12.8672 21.6353 12.94 21.4754 12.978C21.4332 12.9887 21.391 12.9994 21.3475 13.0105C21.3023 13.0206 21.2571 13.0307 21.2105 13.0411C21.163 13.0528 21.1154 13.0645 21.0663 13.0765C20.9342 13.1088 20.8019 13.1399 20.6694 13.1708C20.5124 13.208 20.356 13.2475 20.1994 13.2867C20.071 13.3186 19.9425 13.3504 19.8141 13.3822C19.7828 13.3899 19.7516 13.3976 19.7194 13.4056C19.6303 13.4275 19.5411 13.4491 19.4518 13.4706C19.4004 13.4831 19.3491 13.4956 19.2961 13.5085C19.1642 13.5352 19.1642 13.5352 18.9923 13.5352C18.9886 13.5694 18.985 13.6036 18.9812 13.6388C18.94 13.838 18.8639 14.0127 18.7828 14.1986C18.7677 14.2338 18.7526 14.2691 18.737 14.3054C18.7085 14.3718 18.6798 14.4382 18.6511 14.5045C18.6285 14.5564 18.6285 14.5564 18.6056 14.6095C18.5798 14.6578 18.5541 14.706 18.5276 14.7558C18.4606 14.9066 18.4606 14.9066 18.5216 15.0419C18.5498 15.0855 18.5781 15.1291 18.6072 15.1741C18.6224 15.1982 18.6375 15.2223 18.6531 15.2471C18.6856 15.2985 18.7187 15.3497 18.7522 15.4005C18.8047 15.4802 18.8557 15.5605 18.9063 15.6413C18.9741 15.749 19.0422 15.8563 19.111 15.9634C19.2397 16.1639 19.366 16.3658 19.4891 16.5699C19.5088 16.6006 19.5284 16.6312 19.5487 16.6628C19.6832 16.8864 19.7348 17.1002 19.6798 17.3595C19.5475 17.651 19.3331 17.8544 19.1084 18.0784C19.0694 18.1176 19.0304 18.1568 18.9903 18.1972C18.908 18.2799 18.8255 18.3623 18.7428 18.4445C18.6375 18.5493 18.5329 18.6548 18.4284 18.7605C18.3279 18.8621 18.2267 18.963 18.1255 19.0639C18.0884 19.1016 18.0512 19.1392 18.0129 19.178C17.7713 19.4168 17.5408 19.6302 17.1869 19.6581C16.9911 19.6467 16.8482 19.5672 16.6827 19.4676C16.6508 19.4494 16.619 19.4311 16.5862 19.4123C16.3931 19.3003 16.2033 19.1833 16.0142 19.0649C15.9061 18.9973 15.7977 18.9302 15.6894 18.863C15.6094 18.8129 15.5299 18.7619 15.4504 18.7109C15.4004 18.6796 15.3504 18.6484 15.3003 18.6171C15.2562 18.589 15.2121 18.561 15.1666 18.532C15.0136 18.4655 14.9401 18.475 14.7813 18.5196C14.6761 18.5646 14.5748 18.611 14.4725 18.662C13.7873 18.9923 13.7873 18.9923 13.5352 18.9923C13.5307 19.0384 13.5261 19.0845 13.5214 19.132C13.4907 19.3762 13.43 19.6123 13.3704 19.8508C13.3524 19.9237 13.3524 19.9237 13.334 19.9981C13.3086 20.1003 13.2831 20.2026 13.2575 20.3048C13.2184 20.4611 13.1799 20.6176 13.1415 20.7741C13.1167 20.8736 13.0918 20.9732 13.067 21.0727C13.0555 21.1194 13.0441 21.1661 13.0324 21.2142C13.0213 21.2578 13.0103 21.3014 12.9989 21.3464C12.9847 21.4036 12.9847 21.4036 12.9701 21.4621C12.8881 21.7061 12.7598 21.8545 12.547 22.0001C12.4008 22.0279 12.4008 22.0279 12.2392 22.0293C12.2095 22.0298 12.1798 22.0303 12.1493 22.0308C12.0519 22.0322 11.9545 22.032 11.8571 22.0316C11.7889 22.032 11.7208 22.0324 11.6526 22.0329C11.5099 22.0336 11.3673 22.0335 11.2246 22.0328C11.0424 22.0321 10.8604 22.0337 10.6782 22.0359C10.5375 22.0374 10.3967 22.0374 10.256 22.037C10.1889 22.037 10.1217 22.0375 10.0546 22.0385C9.46662 22.0458 9.46662 22.0458 9.24297 21.8614C9.13299 21.742 9.06022 21.6353 9.02218 21.4754C9.00611 21.4121 9.00611 21.4121 8.98972 21.3475C8.97961 21.3023 8.96949 21.2571 8.95907 21.2105C8.94738 21.163 8.93569 21.1154 8.92365 21.0663C8.89139 20.9342 8.86027 20.8019 8.82938 20.6694C8.79217 20.5124 8.75269 20.356 8.71351 20.1994C8.68157 20.071 8.64975 19.9425 8.61801 19.8141C8.61029 19.7828 8.60257 19.7516 8.59462 19.7194C8.5727 19.6303 8.55108 19.5411 8.52955 19.4518C8.51707 19.4004 8.50458 19.3491 8.49172 19.2961C8.46493 19.1642 8.46493 19.1642 8.46493 18.9923C8.43081 18.9886 8.39669 18.985 8.36154 18.9812C8.16154 18.9399 7.98572 18.8639 7.79892 18.7828C7.7633 18.7677 7.72769 18.7526 7.69099 18.737C7.53916 18.6721 7.39522 18.6082 7.25241 18.5247C7.09184 18.4602 7.03372 18.4986 6.87509 18.5626C6.78363 18.6127 6.69361 18.6654 6.60486 18.7202C6.57974 18.7356 6.55462 18.751 6.52875 18.7668C6.44889 18.8158 6.36926 18.8651 6.28964 18.9144C6.1853 18.9787 6.08088 19.0428 5.97644 19.1069C5.95096 19.1226 5.92547 19.1382 5.89922 19.1544C5.01388 19.6972 5.01388 19.6972 4.68368 19.6368C4.38504 19.4962 4.17559 19.277 3.94449 19.0451C3.90285 19.0037 3.8612 18.9623 3.81954 18.9209C3.73265 18.8344 3.64601 18.7476 3.55953 18.6607C3.44913 18.5498 3.33807 18.4396 3.2268 18.3296C3.14075 18.2444 3.05511 18.1587 2.96958 18.0729C2.90911 18.0125 2.84827 17.9523 2.78742 17.8922C2.54776 17.6499 2.38815 17.4711 2.34474 17.125C2.3677 16.9374 2.43771 16.802 2.53256 16.6424C2.55083 16.6104 2.5691 16.5784 2.58792 16.5454C2.69993 16.3512 2.81682 16.1602 2.93526 15.9699C2.98586 15.8886 3.03625 15.8072 3.08663 15.7258C3.1534 15.6179 3.22106 15.5106 3.28929 15.4037C3.32057 15.3535 3.35182 15.3034 3.38304 15.2532C3.41113 15.2088 3.43923 15.1644 3.46817 15.1187C3.53171 14.9781 3.52961 14.9251 3.48056 14.7813C3.435 14.6778 3.38804 14.5766 3.33823 14.4752C3.0079 13.7852 3.0079 13.7852 3.0079 13.5352C2.9618 13.5307 2.9157 13.5261 2.8682 13.5214C2.624 13.4907 2.38787 13.43 2.14937 13.3704C2.07647 13.3524 2.07647 13.3524 2.0021 13.334C1.89984 13.3086 1.7976 13.2831 1.69539 13.2575C1.53907 13.2184 1.38261 13.1799 1.22613 13.1415C1.12656 13.1167 1.02699 13.0918 0.927443 13.067C0.880756 13.0555 0.834069 13.0441 0.785967 13.0324C0.720555 13.0158 0.720555 13.0158 0.653822 12.9989C0.615642 12.9894 0.577463 12.9799 0.538126 12.9701C0.294036 12.8881 0.14567 12.7598 9.02901e-05 12.547C-0.0277696 12.4008 -0.0277696 12.4008 -0.0290731 12.2392C-0.0295876 12.2095 -0.0301021 12.1798 -0.0306322 12.1493C-0.0320085 12.0519 -0.031809 11.9545 -0.0314649 11.8571C-0.0318283 11.7889 -0.0322426 11.7208 -0.0327054 11.6526C-0.0334086 11.5099 -0.0332943 11.3673 -0.0326398 11.2246C-0.0318978 11.0424 -0.0334922 10.8604 -0.035745 10.6782C-0.0371718 10.5375 -0.0371909 10.3967 -0.0368124 10.256C-0.0368278 10.1889 -0.0373091 10.1217 -0.0382784 10.0546C-0.0456434 9.46662 -0.0456431 9.46662 0.138795 9.24297C0.258172 9.13299 0.364893 9.06022 0.524779 9.02218C0.588079 9.00611 0.588079 9.00611 0.652657 8.98972C0.697862 8.97961 0.743067 8.96949 0.789641 8.95907C0.837228 8.94738 0.884814 8.93569 0.933842 8.92365C1.06596 8.89139 1.1983 8.86027 1.33074 8.82938C1.48776 8.79217 1.64421 8.75269 1.80075 8.71351C1.92918 8.68157 2.05764 8.64975 2.18613 8.61801C2.21735 8.61029 2.24858 8.60257 2.28076 8.59462C2.3699 8.5727 2.4591 8.55108 2.54834 8.52955C2.59973 8.51707 2.65113 8.50458 2.70408 8.49172C2.83603 8.46493 2.83603 8.46493 3.0079 8.46493C3.01145 8.43087 3.01499 8.39681 3.01864 8.36171C3.06066 8.16014 3.1397 7.98395 3.22275 7.79623C3.25427 7.72465 3.28561 7.65298 3.31674 7.58122C3.33064 7.54978 3.34455 7.51835 3.35887 7.48596C3.40008 7.37618 3.4307 7.29383 3.43759 7.17587C3.38907 7.06922 3.34005 6.97822 3.2783 6.87979C3.25274 6.83738 3.25274 6.83738 3.22666 6.79411C3.17132 6.70258 3.11513 6.6116 3.05893 6.5206C3.02102 6.45819 2.98318 6.39574 2.9454 6.33325C2.87128 6.21079 2.79687 6.0885 2.72216 5.96639C2.59886 5.76464 2.47791 5.56154 2.358 5.35776C2.33259 5.31515 2.33259 5.31515 2.30667 5.27169C2.17668 5.05189 2.12743 4.89808 2.14853 4.64071C2.27529 4.32086 2.47884 4.1141 2.72139 3.87466C2.76049 3.8355 2.79959 3.79634 2.83987 3.75599C2.92228 3.67352 3.00497 3.59137 3.08789 3.50943C3.19358 3.40496 3.29858 3.29984 3.40339 3.19449C3.50426 3.09325 3.60564 2.99252 3.70698 2.89175C3.74437 2.85424 3.78175 2.81673 3.82027 2.77809C4.30898 2.29687 4.30898 2.29687 4.62997 2.29355C4.80035 2.30451 4.91415 2.34086 5.06218 2.42514C5.10337 2.44848 5.14456 2.47182 5.18699 2.49587C5.2336 2.52304 5.2802 2.55022 5.32822 2.57821C5.35439 2.59346 5.38057 2.6087 5.40754 2.62441C5.58462 2.72772 5.76104 2.83212 5.93717 2.93703C6.02967 2.9921 6.12226 3.04701 6.21487 3.1019C6.27454 3.13736 6.33421 3.17283 6.39387 3.20831C6.42114 3.22447 6.4484 3.24064 6.47649 3.25729C6.60258 3.33251 6.7234 3.40886 6.8436 3.49365C6.95648 3.5819 6.95648 3.5819 7.08674 3.54333C7.13034 3.52262 7.17393 3.5019 7.21884 3.48056C7.26819 3.45807 7.31754 3.43558 7.36839 3.41241C7.42152 3.38686 7.47462 3.36124 7.52768 3.33554C8.21724 3.0079 8.21724 3.0079 8.46493 3.0079C8.4718 2.93875 8.4718 2.93875 8.4788 2.8682C8.50951 2.624 8.57021 2.38787 8.62976 2.14937C8.64179 2.10077 8.65382 2.05217 8.66622 2.0021C8.69162 1.89984 8.71712 1.7976 8.74272 1.69539C8.78179 1.53907 8.82026 1.38261 8.8587 1.22613C8.88351 1.12656 8.90835 1.02699 8.93323 0.927443C8.94464 0.880756 8.95606 0.834069 8.96783 0.785967C8.97886 0.742359 8.9899 0.698751 9.00127 0.653821C9.01077 0.615642 9.02028 0.577462 9.03008 0.538126C9.15094 0.178542 9.37587 -0.0259682 9.76103 -0.0290734ZM7.90634 7.73447C7.87959 7.75762 7.85283 7.78077 7.82527 7.80463C7.21954 8.36658 6.81374 9.17634 6.61728 9.96884C6.60931 10.0005 6.60134 10.0321 6.59313 10.0647C6.33251 11.2106 6.58236 12.3618 7.1705 13.3553C7.33912 13.6185 7.52782 13.8596 7.73447 14.0938C7.76919 14.134 7.76919 14.134 7.80463 14.1749C8.36658 14.7806 9.17634 15.1864 9.96884 15.3829C10.0005 15.3909 10.0321 15.3988 10.0647 15.4071C11.2106 15.6677 12.3618 15.4178 13.3553 14.8297C13.6185 14.6611 13.8596 14.4724 14.0938 14.2657C14.1206 14.2426 14.1473 14.2194 14.1749 14.1956C14.7806 13.6336 15.1864 12.8238 15.3829 12.0313C15.3909 11.9997 15.3988 11.9681 15.4071 11.9355C15.6677 10.7896 15.4178 9.63838 14.8297 8.64487C14.6611 8.38166 14.4724 8.14062 14.2657 7.90634C14.2426 7.87959 14.2194 7.85283 14.1956 7.82527C13.6336 7.21954 12.8238 6.81374 12.0313 6.61728C11.9997 6.60931 11.9681 6.60134 11.9355 6.59313C10.4564 6.25674 9.01682 6.75494 7.90634 7.73447Z" fill="white"/>
</g>
<defs>
<clipPath id="clip0_398_9401">
<rect width="22" height="22" fill="white"/>
</clipPath>
</defs>
</svg>
