<svg width="22" height="22" viewBox="0 0 22 22" fill="none" xmlns="http://www.w3.org/2000/svg">
<g clip-path="url(#clip0_398_9361)">
<path d="M16.6162 5.87013C16.66 5.86991 16.7038 5.86968 16.7489 5.86945C16.8924 5.86889 17.0359 5.86926 17.1793 5.86969C17.2798 5.86961 17.3803 5.86948 17.4808 5.86932C17.6908 5.86913 17.9009 5.8694 18.1109 5.87001C18.3794 5.87074 18.6478 5.87032 18.9162 5.86955C19.1235 5.86908 19.3309 5.86923 19.5382 5.86956C19.6371 5.86965 19.7361 5.86955 19.835 5.86924C19.9736 5.86891 20.1122 5.86942 20.2508 5.87013C20.3113 5.86974 20.3113 5.86974 20.3731 5.86934C20.8704 5.87406 21.2715 6.03337 21.6427 6.36215C21.9736 6.71954 22.0316 7.15375 22.027 7.62207C22.0275 7.70455 22.0275 7.70455 22.0279 7.78869C22.0287 7.93783 22.0282 8.08694 22.0273 8.23608C22.0266 8.39286 22.027 8.54963 22.0272 8.70641C22.0274 8.96928 22.0267 9.23213 22.0255 9.49499C22.0242 9.79844 22.0242 10.1019 22.0249 10.4053C22.0256 10.6983 22.0253 10.9912 22.0246 11.2841C22.0243 11.4084 22.0243 11.5327 22.0246 11.6569C22.025 11.8303 22.024 12.0037 22.0228 12.1771C22.0232 12.254 22.0232 12.254 22.0237 12.3326C22.0205 12.6024 22.0137 12.7739 21.828 12.9767C21.6186 13.1358 21.4617 13.1734 21.1996 13.163C21.0456 13.1412 20.9082 13.0881 20.7968 12.9767C20.7924 12.9099 20.791 12.843 20.7908 12.7761C20.7906 12.7328 20.7904 12.6894 20.7901 12.6447C20.7901 12.5967 20.79 12.5487 20.79 12.4993C20.7898 12.449 20.7896 12.3988 20.7893 12.3471C20.7887 12.2088 20.7883 12.0706 20.788 11.9323C20.7875 11.7877 20.7867 11.643 20.7859 11.4983C20.7833 11.0053 20.7809 10.5122 20.7795 10.0191C20.7787 9.74699 20.7775 9.47487 20.7757 9.20275C20.7748 9.05876 20.7742 8.91479 20.7741 8.7708C20.7739 8.60992 20.7729 8.44905 20.7717 8.28817C20.7718 8.24071 20.772 8.19324 20.7721 8.14433C20.7679 7.75455 20.6907 7.50606 20.41 7.21884C20.1579 7.06651 19.9342 7.04174 19.6437 7.03936C19.615 7.03908 19.5864 7.0388 19.5568 7.03851C19.4624 7.03766 19.368 7.03716 19.2736 7.03673C19.2411 7.03656 19.2087 7.03638 19.1752 7.0362C19.0034 7.03531 18.8315 7.03469 18.6597 7.03429C18.4832 7.03381 18.3067 7.03233 18.1302 7.03063C17.9937 7.0295 17.8571 7.02914 17.7205 7.02899C17.6555 7.02878 17.5905 7.02829 17.5255 7.02748C16.9288 7.01847 16.9288 7.01847 16.417 7.29405C16.1758 7.5531 16.1433 7.79531 16.1431 8.13762C16.1428 8.17797 16.1424 8.21832 16.142 8.2599C16.1409 8.39348 16.1404 8.52706 16.1399 8.66065C16.1392 8.75431 16.1384 8.84797 16.1376 8.94163C16.1357 9.18892 16.1342 9.4362 16.1328 9.68348C16.1306 10.0764 16.1277 10.4694 16.1247 10.8623C16.1238 10.9982 16.1231 11.134 16.1224 11.2698C16.1188 11.8539 16.0998 12.4363 16.0702 13.0196C15.8242 13.1474 15.6571 13.1808 15.3827 13.1485C15.1558 13.0715 15.0476 12.9504 14.91 12.7618C14.8674 12.6339 14.8614 12.5492 14.8608 12.4156C14.8604 12.3707 14.8601 12.3258 14.8598 12.2795C14.8597 12.2302 14.8596 12.1809 14.8595 12.1301C14.8592 12.0782 14.8589 12.0263 14.8586 11.9728C14.8578 11.8004 14.8573 11.628 14.8568 11.4556C14.8567 11.3961 14.8565 11.3366 14.8563 11.2771C14.8555 10.9972 14.8549 10.7173 14.8545 10.4373C14.8541 10.1153 14.853 9.79326 14.8512 9.47123C14.8499 9.22172 14.8493 8.97223 14.8492 8.72272C14.8491 8.57402 14.8487 8.42533 14.8476 8.27663C14.8464 8.11015 14.8466 7.94369 14.8469 7.77721C14.8463 7.72879 14.8458 7.68038 14.8452 7.6305C14.8482 7.1642 14.9441 6.71686 15.2548 6.35662C15.6421 5.97773 16.0861 5.86671 16.6162 5.87013Z" fill="white"/>
<path d="M16.5859 12.8906C17.8196 12.8906 19.0532 12.8906 20.3242 12.8906C20.3242 14.9041 20.3242 16.9177 20.3242 18.9922C19.7854 18.9922 19.2466 18.9922 18.6914 18.9922C18.6906 18.8469 18.6897 18.7015 18.6888 18.5518C18.686 18.0726 18.6826 17.5934 18.6791 17.1142C18.6769 16.8236 18.6749 16.5329 18.6733 16.2423C18.6717 15.962 18.6697 15.6817 18.6674 15.4015C18.6666 15.2943 18.666 15.1872 18.6655 15.08C18.6648 14.9304 18.6635 14.7808 18.6621 14.6312C18.662 14.5865 18.662 14.5418 18.6619 14.4958C18.6614 14.4552 18.6609 14.4146 18.6604 14.3727C18.6602 14.3373 18.6599 14.3019 18.6597 14.2654C18.656 14.1698 18.656 14.1698 18.5625 14.0938C18.4632 14.0938 18.364 14.0938 18.2617 14.0938C18.2475 15.7102 18.2334 17.3267 18.2188 18.9922C17.6799 18.9922 17.1411 18.9922 16.5859 18.9922C16.5859 16.9787 16.5859 14.9652 16.5859 12.8906Z" fill="white"/>
<path d="M17.2306 7.50295C17.2748 7.50261 17.2748 7.50261 17.3199 7.50226C17.4167 7.5017 17.5135 7.50207 17.6104 7.5025C17.678 7.50242 17.7456 7.50229 17.8131 7.50213C17.9546 7.50194 18.096 7.50222 18.2375 7.50282C18.4185 7.50355 18.5995 7.50313 18.7806 7.50236C18.9201 7.50189 19.0595 7.50204 19.199 7.50238C19.2658 7.50246 19.3325 7.50236 19.3993 7.50206C19.4926 7.50173 19.586 7.50223 19.6794 7.50295C19.7324 7.50305 19.7855 7.50315 19.8402 7.50326C19.9936 7.52116 20.0731 7.55563 20.1952 7.64853C20.3 7.80569 20.2961 7.92632 20.299 8.10843C20.2998 8.1429 20.3006 8.17736 20.3015 8.21287C20.3041 8.32912 20.3061 8.44536 20.308 8.56162C20.3097 8.64368 20.3113 8.72574 20.313 8.80781C20.3349 9.99668 20.3267 11.1861 20.3241 12.3751C19.0905 12.3751 17.8569 12.3751 16.5859 12.3751C16.5807 11.2577 16.5807 11.2577 16.5796 10.7818C16.5788 10.4569 16.5779 10.1321 16.5761 9.8072C16.5747 9.54531 16.574 9.28343 16.5736 9.02153C16.5734 8.92157 16.5729 8.8216 16.5722 8.72164C16.5713 8.58173 16.5712 8.44184 16.5712 8.30193C16.5708 8.26051 16.5703 8.2191 16.5698 8.17643C16.5715 7.81246 16.5715 7.81246 16.7148 7.64853C16.884 7.51401 17.0177 7.50336 17.2306 7.50295Z" fill="white"/>
<path d="M8.54347 7.94182C8.58179 7.94154 8.6201 7.94126 8.65957 7.94097C8.7863 7.94012 8.91304 7.93962 9.03978 7.93919C9.08317 7.93901 9.12656 7.93884 9.17127 7.93866C9.40106 7.93776 9.63084 7.93715 9.86063 7.93675C10.0973 7.93627 10.3339 7.93479 10.5706 7.93309C10.7531 7.93196 10.9357 7.9316 11.1182 7.93145C11.2054 7.93124 11.2926 7.93074 11.3798 7.92994C12.4149 7.92104 12.4149 7.92104 12.8246 8.29972C13.0163 8.53055 13.153 8.83016 13.1547 9.13092C13.1551 9.19028 13.1551 9.19028 13.1556 9.25084C13.1557 9.29417 13.1558 9.3375 13.1559 9.38214C13.1562 9.42784 13.1565 9.47355 13.1568 9.52064C13.1576 9.67215 13.1581 9.82366 13.1586 9.97517C13.1587 10.0269 13.1589 10.0786 13.1591 10.1319C13.16 10.4055 13.1606 10.6791 13.161 10.9527C13.1615 11.2355 13.163 11.5182 13.1647 11.801C13.1658 12.0183 13.1662 12.2356 13.1663 12.4529C13.1665 12.5571 13.167 12.6614 13.1678 12.7656C13.1689 12.9115 13.1688 13.0573 13.1685 13.2032C13.1693 13.2678 13.1693 13.2678 13.1702 13.3337C13.1683 13.5799 13.1459 13.7294 12.9765 13.9221C12.8277 14.0213 12.7651 14.0196 12.5897 14.0188C12.5445 14.019 12.4993 14.0192 12.4528 14.0194C12.3319 14.008 12.3319 14.008 12.203 13.9221C12.1868 13.8447 12.1868 13.8447 12.1867 13.7493C12.1864 13.7132 12.186 13.677 12.1857 13.6398C12.1859 13.6001 12.1862 13.5603 12.1865 13.5194C12.1863 13.4776 12.186 13.4358 12.1858 13.3928C12.1854 13.3018 12.1852 13.2108 12.1854 13.1198C12.1856 12.9756 12.185 12.8315 12.1841 12.6874C12.1826 12.381 12.182 12.0746 12.1815 11.7683C12.181 11.4142 12.1801 11.0601 12.1781 10.7059C12.1775 10.5642 12.1777 10.4224 12.1779 10.2807C12.1775 10.1932 12.1771 10.1057 12.1766 10.0183C12.1768 9.97908 12.1771 9.93987 12.1774 9.89947C12.1742 9.56374 12.1052 9.26956 11.8593 9.02365C11.6239 8.88345 11.4148 8.84675 11.1442 8.84485C11.0966 8.84444 11.0489 8.84402 10.9999 8.8436C10.9232 8.84332 10.9232 8.84332 10.845 8.84304C10.7654 8.84268 10.7654 8.84268 10.6842 8.8423C10.572 8.8419 10.4598 8.84162 10.3476 8.84145C10.1768 8.84117 10.0061 8.8397 9.83529 8.83834C9.72605 8.83806 9.6168 8.83784 9.50756 8.83767C9.43154 8.83688 9.43154 8.83688 9.35398 8.83607C8.85675 8.83613 8.85675 8.83613 8.42433 9.05313C8.17649 9.32149 8.15134 9.57297 8.1523 9.9256C8.15196 9.99019 8.15196 9.99019 8.15162 10.0561C8.15118 10.1494 8.15093 10.2427 8.15085 10.336C8.15069 10.4835 8.14997 10.631 8.1491 10.7785C8.14671 11.1979 8.14539 11.6172 8.14435 12.0365C8.14367 12.2931 8.14237 12.5496 8.1407 12.8062C8.1402 12.9041 8.13995 13.002 8.13994 13.0999C8.13994 13.2365 8.13915 13.3729 8.1382 13.5095C8.13849 13.5706 8.13849 13.5706 8.13879 13.6329C8.13817 13.6885 8.13817 13.6885 8.13754 13.7452C8.13745 13.7775 8.13736 13.8097 8.13728 13.843C8.12098 13.9221 8.12098 13.9221 7.99208 14.008C7.79113 14.0356 7.57189 14.0561 7.38682 13.9629C7.29593 13.8877 7.22854 13.813 7.17567 13.7072C7.17135 13.6439 7.16968 13.5803 7.16935 13.5168C7.16904 13.4768 7.16873 13.4367 7.16842 13.3954C7.1683 13.3514 7.16818 13.3073 7.16807 13.2618C7.16778 13.2155 7.1675 13.1692 7.16721 13.1215C7.16636 12.9675 7.16586 12.8136 7.16543 12.6597C7.16526 12.6072 7.16508 12.5546 7.1649 12.5005C7.1641 12.251 7.16347 12.0015 7.16311 11.752C7.16265 11.4362 7.16121 11.1203 7.15933 10.8045C7.1582 10.5835 7.15784 10.3626 7.15769 10.1417C7.15748 10.0359 7.15698 9.93007 7.15619 9.82426C7.15514 9.67584 7.15518 9.52747 7.15548 9.37905C7.15465 9.31384 7.15465 9.31384 7.15381 9.24731C7.15679 8.83928 7.28869 8.53702 7.56524 8.23846C7.85421 7.98044 8.1694 7.94302 8.54347 7.94182Z" fill="white"/>
<path d="M8.63693 13.8789C9.64369 13.8789 10.6504 13.8789 11.6877 13.8789C11.6877 15.5663 11.6877 17.2537 11.6877 18.9922C11.2623 18.9922 10.8369 18.9922 10.3986 18.9922C10.398 18.8705 10.3974 18.7488 10.3967 18.6235C10.3946 18.222 10.3917 17.8205 10.3885 17.419C10.3866 17.1755 10.3849 16.932 10.3838 16.6885C10.3826 16.4537 10.3809 16.2188 10.3787 15.9839C10.378 15.8942 10.3775 15.8045 10.3773 15.7148C10.3769 15.5893 10.3757 15.464 10.3743 15.3385C10.3743 15.3012 10.3744 15.2639 10.3744 15.2255C10.377 15.0392 10.377 15.0392 10.297 14.878C10.2269 14.8127 10.2269 14.8127 10.1167 14.8269C10.0106 14.8571 10.0106 14.8571 9.96327 14.9317C9.90735 15.0927 9.91272 15.253 9.91229 15.4215C9.91186 15.46 9.91143 15.4986 9.91098 15.5384C9.90966 15.6658 9.90893 15.7932 9.9082 15.9206C9.9074 16.009 9.90656 16.0974 9.90568 16.1857C9.90347 16.4183 9.90177 16.6508 9.90017 16.8834C9.89845 17.1207 9.89626 17.358 9.8941 17.5954C9.88994 18.061 9.88636 18.5266 9.88302 18.9922C9.45763 18.9922 9.03224 18.9922 8.59396 18.9922C8.5875 17.2869 8.60821 15.584 8.63693 13.8789Z" fill="white"/>
<path d="M9.10908 9.30249C9.15999 9.30209 9.2109 9.30168 9.26334 9.30127C9.31795 9.30175 9.37257 9.30223 9.42883 9.30273C9.51345 9.30264 9.51345 9.30264 9.59977 9.30254C9.71897 9.30248 9.83814 9.30302 9.95734 9.304C10.1098 9.30522 10.2622 9.3051 10.4146 9.30456C10.5605 9.30418 10.7063 9.30484 10.8522 9.30542C10.9068 9.30529 10.9614 9.30517 11.0177 9.30504C11.0686 9.30558 11.1195 9.30613 11.1719 9.30669C11.2166 9.30692 11.2613 9.30715 11.3073 9.30739C11.4485 9.32663 11.53 9.3693 11.6444 9.45296C11.7143 9.59266 11.6929 9.74623 11.6923 9.8997C11.6923 9.93701 11.6923 9.97432 11.6923 10.0128C11.6922 10.1365 11.6919 10.2601 11.6916 10.3838C11.6915 10.4694 11.6914 10.5551 11.6914 10.6407C11.6912 10.8663 11.6908 11.0919 11.6903 11.3176C11.6898 11.5881 11.6896 11.8587 11.6894 12.1292C11.6889 12.5405 11.6881 12.9518 11.6874 13.3631C10.6806 13.3631 9.67386 13.3631 8.63659 13.3631C8.62798 12.4049 8.62798 12.4049 8.6261 11.9968C8.62482 11.7183 8.6233 11.4397 8.62039 11.1611C8.61805 10.9366 8.61677 10.712 8.61621 10.4875C8.61581 10.4017 8.61504 10.316 8.61388 10.2303C8.61232 10.1103 8.6121 9.99041 8.6122 9.87043C8.61143 9.83489 8.61066 9.79935 8.60986 9.76273C8.61134 9.59865 8.62092 9.51416 8.72944 9.38793C8.86819 9.31528 8.95308 9.30252 9.10908 9.30249Z" fill="white"/>
<path d="M1.23135 8.87698C1.28455 8.87654 1.28455 8.87654 1.33883 8.87609C1.45508 8.87531 1.57131 8.87547 1.68756 8.87571C1.76899 8.87551 1.85043 8.87529 1.93186 8.87503C2.10215 8.87464 2.27244 8.87475 2.44274 8.87518C2.66023 8.87567 2.87769 8.8748 3.09517 8.87355C3.26324 8.87276 3.43129 8.87277 3.59935 8.87301C3.67951 8.87302 3.75966 8.87276 3.83981 8.87223C4.64225 8.86763 4.64225 8.86763 4.94127 9.06622C4.98735 9.09635 5.03344 9.12648 5.08092 9.15752C5.4249 9.51714 5.46318 9.93174 5.46382 10.4077C5.46414 10.4655 5.46414 10.4655 5.46447 10.5245C5.46509 10.6512 5.46539 10.7778 5.46562 10.9045C5.46587 10.9929 5.46612 11.0814 5.46637 11.1698C5.46682 11.3549 5.46707 11.5399 5.46722 11.725C5.46745 11.9618 5.46849 12.1986 5.46971 12.4354C5.47051 12.618 5.47073 12.8005 5.4708 12.9831C5.47093 13.0704 5.47127 13.1577 5.47184 13.245C5.47257 13.3671 5.47249 13.4893 5.47221 13.6114C5.47261 13.6472 5.473 13.683 5.47341 13.7199C5.47179 13.9478 5.43521 14.1062 5.32799 14.3084C5.20231 14.4197 5.102 14.4453 4.93859 14.4507C4.78681 14.4387 4.72436 14.4223 4.59752 14.3514C4.59727 14.3014 4.59702 14.2515 4.59676 14.2001C4.5943 13.7291 4.59117 13.2581 4.58739 12.7871C4.58547 12.5449 4.58379 12.3028 4.58263 12.0607C4.58152 11.8269 4.57978 11.5932 4.57762 11.3594C4.5769 11.2703 4.57641 11.1812 4.57614 11.0921C4.57572 10.9672 4.57452 10.8422 4.57313 10.7172C4.57319 10.6805 4.57325 10.6439 4.57332 10.6061C4.5697 10.3753 4.52819 10.2185 4.42565 10.0115C4.40438 9.94772 4.40438 9.94772 4.38268 9.88262C4.30609 9.83355 4.30609 9.83355 4.2108 9.79668C4.17866 9.78192 4.14652 9.76715 4.1134 9.75194C3.98154 9.70569 3.87853 9.69957 3.739 9.69895C3.68823 9.69854 3.63746 9.69813 3.58515 9.6977C3.50344 9.69776 3.50344 9.69776 3.42008 9.69782C3.36377 9.69764 3.30746 9.69745 3.24944 9.69727C3.13043 9.69695 3.01143 9.69696 2.89242 9.69718C2.74037 9.69743 2.58835 9.6967 2.43631 9.69571C2.29068 9.69492 2.14506 9.69508 1.99942 9.69514C1.94503 9.69474 1.89064 9.69435 1.83461 9.69394C1.7837 9.69421 1.7328 9.69447 1.68036 9.69475C1.63578 9.69472 1.5912 9.6947 1.54527 9.69467C1.39494 9.71364 1.29214 9.76717 1.16002 9.83965C1.11748 9.85383 1.07494 9.86801 1.03111 9.88262C0.866937 10.1434 0.846292 10.4134 0.845539 10.7124C0.845107 10.7518 0.844676 10.7912 0.844231 10.8318C0.842909 10.9616 0.842175 11.0913 0.841448 11.221C0.840643 11.3112 0.839802 11.4014 0.838926 11.4916C0.836723 11.7285 0.835019 11.9654 0.83342 12.2024C0.831698 12.4443 0.829503 12.6863 0.827349 12.9282C0.823193 13.4026 0.819566 13.877 0.816271 14.3514C0.646417 14.4457 0.492478 14.4682 0.300646 14.4373C0.0643176 14.3084 0.0643176 14.3084 -0.000135541 14.1795C-0.00451658 14.1206 -0.00631078 14.0615 -0.00674844 14.0024C-0.00711799 13.9653 -0.00748754 13.9282 -0.00786829 13.89C-0.00814286 13.8288 -0.00814286 13.8288 -0.00842297 13.7663C-0.00877435 13.7234 -0.00912572 13.6805 -0.00948775 13.6363C-0.0105571 13.4938 -0.0112659 13.3512 -0.0118848 13.2087C-0.0121136 13.16 -0.0123423 13.1113 -0.012578 13.0611C-0.0137275 12.8032 -0.0145596 12.5453 -0.0151788 12.2874C-0.0158925 12.0214 -0.0178151 11.7555 -0.0200073 11.4895C-0.0214567 11.2847 -0.02195 11.0799 -0.0221925 10.8751C-0.0224804 10.7771 -0.0231332 10.6791 -0.0241643 10.5811C-0.0255293 10.4435 -0.0255252 10.306 -0.0252076 10.1684C-0.0259126 10.1283 -0.0266175 10.0882 -0.0273438 10.0468C-0.0243005 9.72274 0.0693522 9.44284 0.288882 9.1985C0.557075 8.94216 0.872599 8.87486 1.23135 8.87698Z" fill="white"/>
<path d="M1.33203 14.3516C2.23953 14.3516 3.14703 14.3516 4.08203 14.3516C4.08203 15.883 4.08203 17.4144 4.08203 18.9922C3.71336 18.9922 3.34469 18.9922 2.96484 18.9922C2.96444 18.8824 2.96404 18.7727 2.96363 18.6596C2.96218 18.2972 2.95979 17.9349 2.95694 17.5725C2.95524 17.3527 2.95386 17.133 2.9532 16.9133C2.95255 16.7012 2.95107 16.4892 2.94902 16.2772C2.94838 16.1963 2.94804 16.1153 2.948 16.0344C2.9479 15.9211 2.94674 15.8079 2.94533 15.6946C2.94555 15.6611 2.94576 15.6276 2.94599 15.593C2.94296 15.4362 2.93464 15.3556 2.83447 15.2317C2.8066 15.2107 2.77872 15.1896 2.75 15.168C2.58989 15.216 2.58989 15.216 2.49219 15.3398C2.48692 15.4552 2.48421 15.5695 2.48337 15.6849C2.48273 15.7383 2.48273 15.7383 2.48208 15.7929C2.48072 15.911 2.47965 16.0291 2.47859 16.1472C2.47771 16.229 2.47681 16.3107 2.47589 16.3925C2.47351 16.6079 2.47139 16.8234 2.46932 17.0388C2.46716 17.2586 2.46477 17.4783 2.46239 17.6981C2.45777 18.1295 2.45343 18.5608 2.44922 18.9922C2.08055 18.9922 1.71188 18.9922 1.33203 18.9922C1.33203 17.4608 1.33203 15.9294 1.33203 14.3516Z" fill="white"/>
<path d="M1.70223 10.1668C1.7517 10.1664 1.80117 10.1659 1.85213 10.1655C1.9323 10.1659 1.9323 10.1659 2.01409 10.1663C2.09633 10.1661 2.09633 10.1661 2.18023 10.1659C2.29626 10.1659 2.41226 10.166 2.52828 10.1666C2.67697 10.1674 2.82563 10.1669 2.97432 10.1662C3.11616 10.1656 3.25799 10.166 3.39983 10.1663C3.45327 10.1661 3.50672 10.1658 3.56178 10.1655C3.63598 10.1661 3.63598 10.1661 3.71169 10.1668C3.75529 10.1669 3.79888 10.167 3.8438 10.1671C3.95305 10.1834 3.95305 10.1834 4.03167 10.2278C4.11121 10.3615 4.09875 10.4994 4.09659 10.6504C4.09662 10.702 4.09662 10.702 4.09665 10.7546C4.09656 10.8683 4.09555 10.982 4.09455 11.0957C4.0943 11.1745 4.09412 11.2533 4.09399 11.3321C4.0935 11.5396 4.09223 11.7471 4.09081 11.9545C4.08926 12.2034 4.08867 12.4523 4.08791 12.7013C4.08666 13.0794 4.08419 13.4576 4.08196 13.8358C3.17446 13.8358 2.26696 13.8358 1.33196 13.8358C1.32679 12.9616 1.32679 12.9616 1.32566 12.5896C1.32489 12.3355 1.32398 12.0815 1.32223 11.8274C1.32083 11.6227 1.32006 11.4179 1.31973 11.2131C1.31949 11.1349 1.31902 11.0567 1.31833 10.9785C1.31739 10.8691 1.31726 10.7598 1.31732 10.6504C1.31686 10.6179 1.3164 10.5855 1.31592 10.552C1.31665 10.4288 1.3184 10.3351 1.38224 10.2278C1.49236 10.1657 1.57595 10.1671 1.70223 10.1668Z" fill="white"/>
<path d="M19.2053 3.23655C19.4384 3.41687 19.5449 3.63531 19.6365 3.91028C19.6725 4.33579 19.6247 4.65693 19.3626 4.99793C19.1433 5.22247 18.9137 5.35407 18.5989 5.38415C18.1679 5.38571 17.885 5.33184 17.5668 5.02999C17.296 4.72565 17.2373 4.4259 17.2528 4.02308C17.2995 3.66736 17.4624 3.41777 17.7422 3.19727C18.2008 2.88808 18.7569 2.9352 19.2053 3.23655Z" fill="white"/>
<path d="M10.7421 5.45708C11.0145 5.63333 11.152 5.88166 11.2406 6.19224C11.2937 6.50118 11.2191 6.77307 11.059 7.03618C10.8989 7.26118 10.7012 7.38996 10.4413 7.47661C10.0646 7.51359 9.76547 7.48533 9.45304 7.26176C9.21071 7.05486 9.09747 6.79966 9.05423 6.48682C9.03936 6.17504 9.13548 5.90114 9.3295 5.65849C9.69925 5.27176 10.2716 5.19699 10.7421 5.45708Z" fill="white"/>
<path d="M3.15263 6.68162C3.37363 6.81035 3.52905 7.02134 3.60917 7.2617C3.63903 7.57356 3.6491 7.83877 3.45492 8.09624C3.24917 8.32649 3.00443 8.45225 2.6939 8.4707C2.38885 8.45226 2.16546 8.31833 1.96024 8.09691C1.77744 7.8227 1.77398 7.58824 1.80448 7.2617C1.87819 6.97295 2.0699 6.80862 2.32011 6.66014C2.58116 6.57312 2.89814 6.56989 3.15263 6.68162Z" fill="white"/>
</g>
<defs>
<clipPath id="clip0_398_9361">
<rect width="22" height="22" fill="white"/>
</clipPath>
</defs>
</svg>
