<svg width="22" height="22" viewBox="0 0 22 22" fill="none" xmlns="http://www.w3.org/2000/svg">
<path d="M2.12312 1.35315C2.17002 1.35277 2.17002 1.35277 2.21788 1.35239C2.32271 1.35176 2.42751 1.35236 2.53235 1.35295C2.60824 1.35275 2.68414 1.35248 2.76004 1.35214C2.96864 1.35142 3.17724 1.35177 3.38584 1.35231C3.6108 1.35269 3.83575 1.3521 4.0607 1.35162C4.5014 1.35086 4.94209 1.35102 5.38279 1.35152C5.7409 1.35191 6.099 1.35196 6.45711 1.35178C6.50804 1.35175 6.55897 1.35172 6.61144 1.3517C6.7149 1.35164 6.81836 1.35158 6.92182 1.35153C7.89239 1.35104 8.86296 1.3516 9.83353 1.35253C10.6667 1.35329 11.4998 1.35316 12.3329 1.35237C13.3 1.35145 14.267 1.35109 15.2341 1.35161C15.3372 1.35167 15.4402 1.35172 15.5433 1.35178C15.6194 1.35182 15.6194 1.35182 15.697 1.35186C16.0548 1.352 16.4125 1.35175 16.7703 1.35135C17.2061 1.35087 17.642 1.351 18.0779 1.35191C18.3004 1.35237 18.5228 1.35254 18.7453 1.35197C18.9488 1.35146 19.1524 1.35174 19.3559 1.35266C19.4297 1.35285 19.5034 1.35275 19.5771 1.35233C19.6772 1.35181 19.7772 1.35235 19.8773 1.35315C19.9329 1.35317 19.9886 1.3532 20.0459 1.35323C20.2756 1.3863 20.4063 1.49126 20.554 1.6653C20.6376 1.82858 20.6493 1.96126 20.647 2.14041C20.6474 2.18995 20.6474 2.18995 20.6479 2.24049C20.6485 2.35073 20.648 2.46094 20.6475 2.57119C20.6477 2.65039 20.648 2.7296 20.6484 2.8088C20.6491 3.02365 20.6488 3.23848 20.6483 3.45332C20.6479 3.67823 20.6483 3.90314 20.6485 4.12805C20.6489 4.50573 20.6484 4.88341 20.6476 5.2611C20.6467 5.69766 20.647 6.13421 20.6479 6.57077C20.6487 6.94569 20.6488 7.32061 20.6484 7.69553C20.6481 7.91942 20.6481 8.14329 20.6486 8.36717C20.6491 8.57766 20.6488 8.78813 20.6478 8.99862C20.6476 9.07584 20.6476 9.15306 20.648 9.23028C20.6485 9.33575 20.6479 9.44117 20.647 9.54664C20.6476 9.5924 20.6476 9.5924 20.6482 9.63908C20.6448 9.85485 20.5923 9.97669 20.4533 10.1404C20.2568 10.2972 20.1273 10.3338 19.8773 10.3339C19.846 10.3342 19.8148 10.3344 19.7826 10.3347C19.6777 10.3353 19.5729 10.3347 19.4681 10.3341C19.3922 10.3343 19.3163 10.3346 19.2404 10.3349C19.0318 10.3356 18.8232 10.3353 18.6146 10.3347C18.3896 10.3344 18.1647 10.335 17.9397 10.3354C17.499 10.3362 17.0583 10.336 16.6176 10.3355C16.2595 10.3351 15.9014 10.3351 15.5433 10.3353C15.4924 10.3353 15.4415 10.3353 15.389 10.3354C15.2855 10.3354 15.1821 10.3355 15.0786 10.3355C14.108 10.336 13.1375 10.3354 12.1669 10.3345C11.3338 10.3338 10.5006 10.3339 9.66751 10.3347C8.70046 10.3356 7.73341 10.336 6.76636 10.3354C6.66327 10.3354 6.56019 10.3353 6.45711 10.3353C6.38103 10.3352 6.38103 10.3352 6.30341 10.3352C5.94565 10.335 5.5879 10.3353 5.23015 10.3357C4.79428 10.3362 4.35841 10.3361 3.92254 10.3351C3.70007 10.3347 3.47761 10.3345 3.25515 10.3351C3.05159 10.3356 2.84805 10.3353 2.6445 10.3344C2.57077 10.3342 2.49703 10.3343 2.4233 10.3347C2.32322 10.3352 2.2232 10.3347 2.12312 10.3339C2.03967 10.3339 2.03967 10.3339 1.95455 10.3338C1.72484 10.3007 1.59409 10.1958 1.4464 10.0217C1.36287 9.85847 1.35114 9.72579 1.35339 9.54664C1.35312 9.51362 1.35285 9.48059 1.35258 9.44656C1.35189 9.33632 1.35243 9.22611 1.35297 9.11586C1.35274 9.03666 1.35243 8.95745 1.35206 8.87825C1.35128 8.6634 1.35158 8.44857 1.35213 8.23373C1.35256 8.00882 1.35216 7.78391 1.35189 7.559C1.35158 7.18132 1.35199 6.80364 1.35281 6.42595C1.35374 5.98939 1.35344 5.55284 1.35249 5.11628C1.35171 4.74135 1.3516 4.36644 1.35205 3.99152C1.35232 3.76763 1.35236 3.54376 1.35179 3.31988C1.35129 3.10939 1.35164 2.89892 1.35263 2.68843C1.35286 2.61121 1.35279 2.53399 1.35241 2.45677C1.35194 2.3513 1.35253 2.24588 1.35339 2.14041C1.353 2.1099 1.35262 2.0794 1.35223 2.04797C1.35562 1.8322 1.40817 1.71036 1.54709 1.54665C1.74365 1.38982 1.87317 1.35327 2.12312 1.35315Z" fill="white"/>
<path d="M2.14085 11.6659C2.17387 11.6656 2.2069 11.6654 2.24092 11.6651C2.35117 11.6644 2.46138 11.6649 2.57162 11.6655C2.65083 11.6652 2.73004 11.6649 2.80924 11.6646C3.02409 11.6638 3.23892 11.6641 3.45376 11.6646C3.67867 11.6651 3.90358 11.6647 4.12849 11.6644C4.50617 11.6641 4.88385 11.6645 5.26154 11.6653C5.6981 11.6662 6.13465 11.6659 6.57121 11.665C6.94613 11.6642 7.32105 11.6641 7.69597 11.6646C7.91985 11.6648 8.14373 11.6649 8.36761 11.6643C8.5781 11.6638 8.78857 11.6641 8.99906 11.6651C9.07628 11.6654 9.1535 11.6653 9.23071 11.6649C9.33619 11.6644 9.44161 11.665 9.54708 11.6659C9.57759 11.6655 9.60809 11.6651 9.63952 11.6647C9.85529 11.6681 9.97713 11.7207 10.1408 11.8596C10.3041 12.052 10.3376 12.2078 10.3345 12.4533C10.3348 12.4864 10.3351 12.5194 10.3354 12.5534C10.336 12.6637 10.3355 12.7739 10.335 12.8841C10.3352 12.9633 10.3355 13.0425 10.3359 13.1217C10.3366 13.3366 10.3363 13.5514 10.3358 13.7663C10.3354 13.9912 10.3358 14.2161 10.336 14.441C10.3364 14.8187 10.3359 15.1964 10.3351 15.574C10.3342 16.0106 10.3345 16.4471 10.3354 16.8837C10.3362 17.2586 10.3363 17.6335 10.3359 18.0085C10.3356 18.2324 10.3356 18.4562 10.3361 18.6801C10.3366 18.8906 10.3363 19.1011 10.3353 19.3116C10.3351 19.3888 10.3351 19.466 10.3355 19.5432C10.336 19.6487 10.3354 19.7541 10.3345 19.8596C10.3349 19.8901 10.3353 19.9206 10.3357 19.952C10.3323 20.1678 10.2798 20.2896 10.1408 20.4533C9.94845 20.6166 9.79262 20.6501 9.54708 20.647C9.51405 20.6473 9.48103 20.6476 9.447 20.6479C9.33676 20.6485 9.22655 20.648 9.1163 20.6475C9.0371 20.6477 8.95789 20.648 8.87868 20.6484C8.66384 20.6491 8.44901 20.6488 8.23417 20.6483C8.00926 20.6479 7.78435 20.6483 7.55944 20.6485C7.18175 20.6489 6.80408 20.6484 6.42639 20.6476C5.98983 20.6467 5.55328 20.647 5.11671 20.6479C4.74179 20.6487 4.36688 20.6488 3.99195 20.6484C3.76807 20.6481 3.5442 20.6481 3.32032 20.6486C3.10983 20.6491 2.89936 20.6488 2.68887 20.6478C2.61165 20.6476 2.53443 20.6476 2.45721 20.648C2.35174 20.6485 2.24632 20.6479 2.14085 20.647C2.11034 20.6474 2.07984 20.6478 2.04841 20.6482C1.83264 20.6448 1.7108 20.5923 1.54709 20.4533C1.38383 20.261 1.3503 20.1051 1.35339 19.8596C1.35312 19.8266 1.35285 19.7935 1.35258 19.7595C1.35189 19.6493 1.35243 19.539 1.35297 19.4288C1.35274 19.3496 1.35243 19.2704 1.35206 19.1912C1.35128 18.9763 1.35158 18.7615 1.35213 18.5467C1.35256 18.3218 1.35216 18.0968 1.35189 17.8719C1.35158 17.4943 1.35199 17.1166 1.35281 16.7389C1.35374 16.3023 1.35344 15.8658 1.35249 15.4292C1.35171 15.0543 1.3516 14.6794 1.35205 14.3045C1.35232 14.0806 1.35236 13.8567 1.35179 13.6328C1.35129 13.4223 1.35164 13.2119 1.35263 13.0014C1.35286 12.9242 1.35279 12.8469 1.35241 12.7697C1.35194 12.6642 1.35253 12.5588 1.35339 12.4533C1.353 12.4228 1.35262 12.3923 1.35223 12.3609C1.35562 12.1451 1.40817 12.0233 1.54709 11.8596C1.73948 11.6963 1.8953 11.6628 2.14085 11.6659Z" fill="white"/>
<path d="M12.4531 18.5409C12.4862 18.5406 12.5192 18.5404 12.5532 18.5401C12.6635 18.5394 12.7737 18.5399 12.8839 18.5405C12.9631 18.5402 13.0423 18.5399 13.1215 18.5396C13.3364 18.5388 13.5512 18.5391 13.766 18.5396C13.991 18.5401 14.2159 18.5397 14.4408 18.5394C14.8185 18.5391 15.1961 18.5395 15.5738 18.5403C16.0104 18.5412 16.4469 18.5409 16.8835 18.54C17.2584 18.5392 17.6333 18.5391 18.0083 18.5396C18.2321 18.5398 18.456 18.5399 18.6799 18.5393C18.8904 18.5388 19.1009 18.5391 19.3113 18.5401C19.3886 18.5404 19.4658 18.5403 19.543 18.5399C19.6485 18.5394 19.7539 18.54 19.8594 18.5409C19.8899 18.5405 19.9204 18.5401 19.9518 18.5397C20.1667 18.5431 20.2867 18.6017 20.4531 18.7346C20.609 18.8987 20.6383 19.0303 20.6465 19.2502C20.6383 19.4701 20.609 19.6017 20.4531 19.7658C20.2562 19.9231 20.1057 19.9626 19.8594 19.9595C19.8263 19.9598 19.7933 19.9601 19.7593 19.9604C19.649 19.961 19.5388 19.9605 19.4286 19.96C19.3494 19.9602 19.2702 19.9605 19.191 19.9609C18.9761 19.9616 18.7613 19.9613 18.5465 19.9608C18.3215 19.9604 18.0966 19.9608 17.8717 19.961C17.494 19.9614 17.1164 19.9609 16.7387 19.9601C16.3021 19.9592 15.8656 19.9595 15.429 19.9604C15.0541 19.9612 14.6792 19.9613 14.3042 19.9609C14.0804 19.9606 13.8565 19.9606 13.6326 19.9611C13.4221 19.9616 13.2116 19.9613 13.0012 19.9603C12.9239 19.9601 12.8467 19.9601 12.7695 19.9605C12.664 19.961 12.5586 19.9604 12.4531 19.9595C12.4226 19.9599 12.3921 19.9603 12.3607 19.9607C12.1458 19.9573 12.0258 19.8988 11.8594 19.7658C11.7035 19.6017 11.6742 19.4701 11.666 19.2502C11.6742 19.0303 11.7035 18.8987 11.8594 18.7346C12.0563 18.5773 12.2068 18.5378 12.4531 18.5409Z" fill="white"/>
<path d="M12.4531 13.7284C12.4862 13.7281 12.5192 13.7279 12.5532 13.7276C12.6635 13.7269 12.7737 13.7274 12.8839 13.728C12.9631 13.7277 13.0423 13.7274 13.1215 13.7271C13.3364 13.7263 13.5512 13.7266 13.766 13.7271C13.991 13.7276 14.2159 13.7272 14.4408 13.7269C14.8185 13.7266 15.1961 13.727 15.5738 13.7278C16.0104 13.7287 16.4469 13.7284 16.8835 13.7275C17.2584 13.7267 17.6333 13.7266 18.0083 13.7271C18.2321 13.7273 18.456 13.7274 18.6799 13.7268C18.8904 13.7263 19.1009 13.7266 19.3113 13.7276C19.3886 13.7279 19.4658 13.7278 19.543 13.7274C19.6485 13.7269 19.7539 13.7275 19.8594 13.7284C19.8899 13.728 19.9204 13.7276 19.9518 13.7272C20.1667 13.7306 20.2867 13.7892 20.4531 13.9221C20.609 14.0862 20.6383 14.2178 20.6465 14.4377C20.6383 14.6576 20.609 14.7892 20.4531 14.9533C20.2562 15.1106 20.1057 15.1501 19.8594 15.147C19.8263 15.1473 19.7933 15.1476 19.7593 15.1479C19.649 15.1485 19.5388 15.148 19.4286 15.1475C19.3494 15.1477 19.2702 15.148 19.191 15.1484C18.9761 15.1491 18.7613 15.1488 18.5465 15.1483C18.3215 15.1479 18.0966 15.1483 17.8717 15.1485C17.494 15.1489 17.1164 15.1484 16.7387 15.1476C16.3021 15.1467 15.8656 15.147 15.429 15.1479C15.0541 15.1487 14.6792 15.1488 14.3042 15.1484C14.0804 15.1481 13.8565 15.1481 13.6326 15.1486C13.4221 15.1491 13.2116 15.1488 13.0012 15.1478C12.9239 15.1476 12.8467 15.1476 12.7695 15.148C12.664 15.1485 12.5586 15.1479 12.4531 15.147C12.4226 15.1474 12.3921 15.1478 12.3607 15.1482C12.1458 15.1448 12.0258 15.0863 11.8594 14.9533C11.7035 14.7892 11.6742 14.6576 11.666 14.4377C11.6742 14.2178 11.7035 14.0862 11.8594 13.9221C12.0563 13.7648 12.2068 13.7253 12.4531 13.7284Z" fill="white"/>
</svg>
